<?xml version="1.0" encoding="UTF-8"?>
<!DOCTYPE svg PUBLIC "-//W3C//DTD SVG 1.1//EN" "http://www.w3.org/Graphics/SVG/1.1/DTD/svg11.dtd">
<!-- Creator: CorelDRAW X6 -->
<svg xmlns="http://www.w3.org/2000/svg" xml:space="preserve" width="4.80555in" height="4.80555in" version="1.1" style="shape-rendering:geometricPrecision; text-rendering:geometricPrecision; image-rendering:optimizeQuality; fill-rule:evenodd; clip-rule:evenodd"
viewBox="0 0 4806 4806"
 xmlns:xlink="http://www.w3.org/1999/xlink">
 <defs>
  <style type="text/css">
   <![CDATA[
    .str0 {stroke:#0076BE;stroke-width:13.8898}
    .fil5 {fill:none;fill-rule:nonzero}
    .fil3 {fill:#D7A937;fill-rule:nonzero}
    .fil1 {fill:#FEFEFE;fill-rule:nonzero}
    .fil0 {fill:#0076BE;fill-rule:nonzero}
    .fil4 {fill:#D3AA32;fill-rule:nonzero}
    .fil2 {fill:#F1C82E;fill-rule:nonzero}
   ]]>
  </style>
 </defs>
 <g id="Layer_x0020_1">
  <metadata id="CorelCorpID_0Corel-Layer"/>
  <path class="fil0" d="M4118 2421c0,969 -786,1756 -1755,1756 -969,0 -1755,-786 -1755,-1756 0,-970 786,-1756 1755,-1756 970,0 1755,786 1755,1756z"/>
  <path class="fil1" d="M1579 884c-1,2 -4,5 -5,7 -1,2 0,4 0,7 -1,2 -2,3 -3,4 -1,3 -3,7 -4,10 -1,4 -2,7 -3,11 -1,8 1,17 0,26 0,3 -1,7 -2,9 -1,2 -3,5 -4,7 -2,6 -2,19 0,25 1,2 3,5 4,7 2,6 1,8 7,9 2,0 3,0 5,0 3,-1 1,-2 3,-4 3,-3 5,-5 7,-9 3,-8 0,-12 -4,-19 -1,-2 -4,-5 -4,-8 -1,-6 5,-8 10,-7 4,0 6,1 8,5 2,3 0,13 2,14 3,2 5,-3 9,-2 3,1 6,5 7,7 3,9 -2,17 -9,22 -8,5 -10,9 -12,18 -1,5 -5,13 -11,15 -10,3 -14,-9 -15,-16 -8,1 -2,14 1,18 1,1 3,2 4,3 2,2 1,5 3,6 2,3 5,3 8,6 5,4 8,11 12,16 2,4 2,7 3,11 1,3 3,6 4,8 1,3 4,5 5,8 1,2 1,3 2,5 2,4 3,7 4,12 1,4 0,9 1,13 1,3 4,8 6,11 4,5 12,13 17,16 1,0 6,3 7,3 3,-1 2,-2 3,-4 2,-4 3,-10 0,-14 3,1 8,2 10,5 3,4 -1,10 -2,14 0,2 0,5 0,7 0,2 2,4 2,5 2,9 -2,5 -8,7 0,2 2,3 4,5 3,3 3,4 3,9 0,2 0,3 0,5 0,2 2,4 2,5 1,3 -1,8 2,8 1,-3 0,-6 1,-9 6,-1 6,11 7,13 0,1 4,4 5,5 1,0 2,0 2,-2 2,1 2,1 4,2 3,3 -1,4 5,4 1,-1 2,-2 3,-2 3,0 2,2 3,4 1,3 2,4 2,8 0,5 2,7 2,12 1,3 1,5 2,7 1,3 2,6 3,9 1,6 4,11 7,16 3,6 5,9 5,16 0,3 0,6 0,9 1,6 1,4 7,5 6,0 13,4 19,7 5,2 12,6 16,9 2,2 5,3 7,5 4,3 3,3 5,7 2,5 4,9 6,14 2,5 4,9 7,14 3,5 6,8 9,12 1,2 2,4 4,6 2,4 3,6 4,9 2,5 2,12 9,12 0,4 -7,7 -9,12 -1,3 -1,5 0,8 0,1 2,6 2,7 2,3 4,2 7,3 3,1 6,2 9,3 8,1 16,-1 25,-1 8,0 19,4 27,1 3,-1 1,-2 3,-4 2,-1 3,-2 4,-3 2,-1 6,-6 8,-7 4,-1 7,3 11,4 4,1 8,-1 11,-5 3,-4 3,-7 8,-8 4,-1 7,0 9,-5 5,-8 -4,-12 -5,-19 -1,-8 2,-17 5,-23 4,-7 9,-13 12,-20 3,-7 10,-11 13,-17 1,-3 1,-5 1,-8 0,-4 2,-8 3,-13 1,-5 0,-9 0,-14 0,-3 1,-4 2,-7 1,-3 0,-5 0,-7 1,-3 2,-4 3,-7 0,-2 0,-5 0,-7 2,-8 4,-19 2,-28 -1,-5 -2,-8 -2,-14 0,-5 0,-11 0,-16 0,-5 -1,-10 0,-14 1,-4 3,-7 2,-12 0,-9 0,-19 0,-28 0,-9 -1,-18 -5,-26 -1,-3 -3,-8 -4,-12 -2,-8 -5,-15 -7,-23 -1,-3 0,-6 -1,-9 -1,-2 -3,-5 -4,-8 -1,-3 0,-6 -1,-9 -2,-5 -6,-10 -8,-14 -1,-2 -2,-5 -3,-6 -1,-1 -2,-2 -2,-2 -1,-2 -1,-4 -2,-5 -4,-9 -7,-20 -11,-28 -2,-6 -2,-9 -3,-15 -1,-5 -5,-10 -6,-15 -1,-5 -3,-9 -5,-14 -1,-2 -2,-4 -3,-6 -1,-3 -1,-5 -2,-7 -2,-4 -3,-9 -5,-14 -2,-6 -4,-13 -5,-19 -2,-12 1,-23 7,-33 3,-5 6,-9 3,-15 -1,-3 -3,-5 -4,-8l-299 0c0,7 1,14 -2,20z"/>
  <path class="fil1" d="M584 2293c-3,0 -6,0 -9,-1l0 10c3,0 6,0 9,1l1 -9z"/>
  <path class="fil1" d="M584 2293c-3,0 -6,0 -9,-1l0 10c3,0 6,0 9,1l1 -9z"/>
  <path class="fil1" d="M2616 3398l0 9c3,0 6,0 9,0l0 -9c-3,0 -6,0 -10,0z"/>
  <path class="fil1" d="M2616 3398l0 9c3,0 6,0 9,0l0 -9c-3,0 -6,0 -10,0z"/>
  <path class="fil1" d="M378 2436l-1 0c0,-2 -2,-3 -3,-4 -1,1 -2,3 -2,4 0,2 0,4 2,5 1,1 5,1 6,0 2,-1 0,-5 -2,-5z"/>
  <path class="fil1" d="M1239 2888c1,-2 0,-3 1,-6 0,-2 2,-4 2,-5l0 -3c-2,0 -3,-2 -5,-1 -2,0 -3,2 -4,3 -1,3 -2,7 -1,11 1,3 6,4 8,1z"/>
  <path class="fil1" d="M1184 3196l0 -2c-2,-1 -5,-4 -7,-3 -5,1 0,5 1,6 1,2 4,5 7,4 3,-1 1,-5 -1,-5z"/>
  <path class="fil1" d="M2169 3303c-1,1 -5,2 -6,2 -1,0 -2,0 -3,0 -1,0 -2,1 -3,1 -2,1 -4,0 -6,0 -4,0 -3,1 -3,4 0,2 1,4 1,5 1,2 1,4 1,6 0,2 0,5 2,6 1,0 2,0 3,0 2,0 3,1 4,1 2,-3 4,-6 5,-9 1,-2 3,-4 4,-6 1,-2 2,-4 3,-6 0,-1 -1,-1 -1,-2l-1 -3z"/>
  <path class="fil1" d="M1591 3493c-2,-3 -1,-6 0,-8 -1,-1 -1,-1 -2,0l-1 0c0,-1 -2,-3 -3,-2 -2,1 0,3 -1,4 -1,1 -3,1 -2,3 0,1 1,1 1,2 0,1 0,2 0,3 -2,0 -3,2 -1,2 2,1 3,-2 4,-2 2,0 2,1 4,2 1,0 2,0 3,0 1,0 1,1 2,1 4,-1 -4,-5 -4,-5z"/>
  <path class="fil1" d="M1208 2841c0,4 12,2 12,-1l1 -4c-3,1 -6,0 -9,1 -1,0 -1,1 -2,2 -1,1 -2,0 -3,2z"/>
  <path class="fil1" d="M1838 3957c-1,2 0,2 1,4 0,0 0,0 0,1l4 2c0,-6 -1,-9 -1,-9 -1,0 -4,2 -4,3zm1853 -404c-1,0 -3,0 -5,0 -3,0 -6,2 -6,6 0,1 0,1 0,1l14 -9c-1,0 -2,1 -3,2zm-21 18l0 11c0,3 0,7 0,10 0,2 0,3 -1,4 -1,1 -1,3 -1,4 0,-2 2,-5 3,-6 1,-2 3,-4 5,-6 1,-2 0,-4 -1,-7 -1,-2 -1,-6 -1,-9 0,-4 1,-5 4,-7 2,-2 2,-4 2,-6l-10 6c0,1 0,3 0,5zm-1824 534c31,-96 2,-95 4,-139l-7 -3c2,33 3,144 3,142zm295 -889c-1,2 -3,4 -4,6 -1,3 -3,5 -5,8 -1,0 -2,-1 -4,-1 -1,0 -2,0 -3,0 -2,-1 -2,-4 -2,-6 0,-2 0,-4 -1,-6 -1,-1 -1,-3 -1,-5 0,-3 0,-4 3,-4 2,0 4,0 6,0 1,0 1,-1 3,-1 1,0 2,0 3,0 1,0 5,-1 6,-2l1 3c0,1 1,1 1,2 -2,1 -2,3 -3,5zm-523 168c-1,0 -1,-1 -2,-1 -1,0 -2,0 -3,0 -2,0 -2,-2 -4,-2 -1,1 -2,3 -4,2 -2,-1 -1,-2 1,-2 0,-1 0,-2 0,-3 0,-1 -1,-1 -1,-2 0,-2 1,-2 2,-3 1,-2 -1,-3 1,-4 1,0 3,1 3,2l1 0c1,0 1,0 2,0 -1,2 -2,5 0,7 1,1 7,4 4,5zm-1110 -961c-1,1 -5,0 -5,0 -2,-1 -2,-3 -2,-4 0,-1 1,-3 2,-4 1,1 3,2 3,3l1 0c2,0 3,3 2,5zm728 681c2,-1 5,1 7,3l0 2c2,0 3,4 1,5 -3,1 -5,-2 -7,-4 -1,-2 -6,-4 -1,-6zm31 -320c1,-1 1,-1 2,-2 3,-1 5,0 8,-1l-1 4c-1,3 -12,5 -11,1 0,-2 2,-1 2,-2zm20 34c1,-1 2,-3 4,-3 2,0 3,1 5,1l0 3c0,1 -1,3 -2,5 -1,2 0,3 -1,5 -2,3 -6,2 -7,-1 -1,-3 0,-7 1,-10zm2382 744c-1,0 -1,0 -1,-1 0,0 0,-1 1,-1 0,-1 0,-2 0,-3 0,-1 2,-2 2,-3 2,-3 5,-6 5,-9 0,-2 1,-4 1,-6 0,-1 1,-3 2,-4 0,-1 0,-3 0,-5 0,-2 1,-3 1,-5 1,-4 0,-8 -2,-11 -1,-3 -3,-7 -5,-10 -1,-1 -3,-3 -4,-4 -1,-1 -3,-3 -4,-3 -2,-1 -3,-1 -5,-3 -1,-1 -2,-3 -3,-4 -3,-3 -4,-7 -8,-10 -1,0 -1,-2 -2,-2 -1,-1 -2,0 -3,0 -2,0 -2,-2 -3,-4 -2,-3 -5,-5 -7,-8 -3,-3 -6,-6 -10,-8 -2,-1 -4,-2 -6,-3 -2,-1 -3,-2 -4,-3 -3,-2 -6,-5 -9,-8 -3,-3 -8,-5 -11,-8 -3,-2 -6,-4 -9,-5 -1,0 -1,0 -2,0 0,0 -1,-1 -1,-2 -1,-1 -2,-1 -3,-1 -1,0 -2,-1 -3,-1 -1,-1 -1,-2 -2,-2 -4,-2 -8,-2 -12,-5 -2,-1 -4,-2 -6,-3 -2,-1 -3,-2 -5,-4 -1,-1 -9,-6 -9,-2 -3,1 -6,0 -8,-1 -3,-1 -2,-4 -4,-6 -2,-2 -5,-2 -7,-3 -1,0 -2,-1 -3,-2 -1,-1 -3,-1 -4,-1 -4,-2 -9,-5 -14,-6 -3,-1 -5,1 -8,2 -3,1 -9,1 -12,0 -1,0 -4,-3 -5,-1 -1,1 0,4 0,5 -1,2 -2,3 -4,3 -2,1 -7,0 -9,-1 -2,-1 -3,-1 -5,-1 -1,0 -2,-1 -3,-2 -2,-1 -3,0 -4,-2 -1,-1 0,-3 0,-5 -1,-1 -2,-1 -3,-2 0,-1 1,-4 2,-5 0,-2 0,-3 -1,-5 -1,-2 -1,-1 -3,-2 -2,-1 -3,-3 -3,-6 -2,-1 -5,1 -7,-2 -1,-1 -1,-3 -1,-4 0,-1 1,-1 2,-2 1,-1 0,-3 0,-5 1,-2 2,-2 2,-4 0,-2 -2,-6 -4,-7 1,-2 4,-3 5,-5 -1,-1 -2,-1 -2,-3 0,-2 1,-2 0,-3 -1,-1 -3,-1 -4,-3 -2,-2 0,-3 1,-5 0,0 1,-4 1,-4 0,-1 -1,-1 -2,-2 -2,-2 -3,-4 -6,-5 -2,-1 -4,-1 -5,-2 -4,-3 -6,-8 -11,-10 -6,-2 -11,-2 -17,-2 -3,0 -4,-1 -7,-2 -2,-1 -5,-2 -7,-4 -4,-2 -8,-5 -11,-8 -2,-2 -2,-3 -4,-5 -4,-3 -8,-8 -14,-6 1,2 2,4 2,6 -3,1 -7,1 -9,-1 -2,-1 -5,-2 -7,-4 -1,1 -1,4 -3,4 -1,0 -2,-2 -3,-3 -2,-2 -5,-4 -8,-6 -2,-1 -4,-1 -6,-2 -1,0 -1,-1 -2,-2 -1,-1 -1,-1 -2,-2 -3,-2 -6,-4 -10,-3 -4,1 -8,1 -11,0 -1,0 -5,-2 -5,1 0,2 2,1 3,2 2,2 -2,3 -3,3 -1,1 -2,2 -3,2 -2,2 -2,2 -4,0 -1,-1 -2,-1 -2,-3 1,-1 1,-1 1,-2 0,-1 -2,-1 -3,-2 -1,-1 -1,-2 -1,-2 -1,-1 0,-3 -1,-4 0,-1 -2,-2 -3,-3 -1,-1 -1,-2 -1,-3 -2,-2 -5,-4 -7,-5 -3,-1 -5,-5 -9,-3 1,2 1,5 -2,2 -2,-2 -3,-5 -2,-7 0,-2 1,-3 1,-5 0,-1 -1,-2 -2,-3 -1,-2 -3,-4 -4,-5 -1,-2 -3,-4 -5,-5 -2,-1 -4,-2 -1,-4 2,-1 5,-2 8,-2 1,0 2,1 3,1 2,0 2,0 4,0 2,-1 3,0 5,-1 1,0 2,-1 4,-1 3,0 5,-1 8,-1 6,-1 11,1 16,-4 2,-2 3,-3 5,-4 1,-1 2,-1 3,-2 1,0 2,0 4,0 1,-1 2,-1 3,-1 3,0 6,0 9,0 2,0 4,1 6,0 3,-1 3,-3 4,-5 1,-1 4,-3 2,-5 -2,-1 -6,-1 -8,-1 -2,0 -2,0 -4,1 -1,0 -2,0 -4,0 -3,0 -5,1 -8,1 -2,0 -5,0 -7,0 -1,0 -2,-1 -3,-1 -1,0 -3,0 -4,0l-7 0c-6,0 -11,0 -17,0 -3,0 -5,-1 -8,-1 -3,0 -4,1 -7,1 -4,0 -9,0 -13,2 -6,2 -13,4 -19,3 -5,0 -9,0 -13,1 -4,1 -9,3 -13,3 -6,0 -13,1 -19,3 -2,0 -4,2 -6,3 -1,0 -3,0 -4,0 -1,0 -2,1 -3,1 -1,0 -2,0 -3,0 -2,0 -4,-1 -6,-1 -1,0 -2,-1 -3,-1 -1,0 -2,0 -3,-1 -1,-1 -3,-2 -4,-3 -2,1 -3,2 -3,5 -1,0 -2,1 -3,1 -1,0 -2,0 -3,0 -2,0 -3,0 -5,1 -1,0 -2,0 -3,1 -1,0 -2,1 -3,1 -1,0 -2,-1 -3,-1 -1,0 -2,0 -3,0 -2,0 -4,0 -6,0 -2,1 -3,3 -6,2 -3,-1 -8,-5 -11,-2 1,2 2,4 3,5 1,1 2,0 2,2 0,1 -1,3 -1,4 4,1 7,-3 11,-4 5,-1 10,0 14,0 5,0 9,0 13,2 2,1 4,1 6,2 1,0 7,2 7,3 0,2 -5,1 -6,1 -1,0 -2,1 -3,1 -1,0 -2,0 -4,0 -1,0 -3,0 -4,0 -1,0 -2,1 -3,1 -2,1 -5,0 -8,0 -3,0 -5,0 -8,-1 -1,0 -3,-1 -4,-1 -1,0 -1,1 -2,1 -1,1 -2,1 -3,2 -1,1 -1,1 -2,2 -1,1 -2,1 -3,1 -1,0 -1,1 -2,1 0,3 -4,3 -6,4 -1,0 -3,1 -4,1 -2,1 -2,2 -3,3 -1,2 -1,2 -2,4 -1,2 -2,2 -4,3 -3,2 -7,2 -10,3 -1,0 -3,2 -4,3 0,0 -2,1 -2,1 -1,0 -1,1 -2,1 -2,1 -3,1 -5,3 -2,3 1,3 2,6 1,4 -7,3 -9,3 -2,0 -5,0 -7,0 -2,0 -4,1 -6,1 -2,0 -5,-1 -8,0 -2,0 -3,1 -6,1 -2,0 -3,-1 -5,-1 -2,0 -4,0 -6,-1 -2,-1 -3,-3 -5,-3 -1,0 -2,0 -3,0 -1,0 -1,-1 -2,-1 -2,-1 -4,-1 -6,-1 -1,0 -2,-1 -3,-1 -1,0 -2,0 -3,0 -2,0 -5,-1 -8,-2 -2,0 -4,-2 -6,-3 -1,0 -2,0 -3,0 -1,0 -1,-1 -2,-1 -1,0 -2,0 -3,0 0,0 -2,-1 -2,-1 -4,-2 -8,-2 -12,-2 -3,0 -6,0 -8,-3 -1,-2 -1,-4 -3,-6 -1,-1 -3,-2 -4,-2 -2,-1 -3,-2 -5,-3 -3,-2 -5,-4 -8,-5 -4,-1 -1,-2 -1,-5 0,-2 1,-4 -1,-5 -1,-1 -3,-2 -4,-2 -2,0 -4,-1 -5,-2 -2,-1 -4,-1 -7,-1 -2,0 -3,1 -4,2 -2,1 -3,1 -5,1 -2,-1 -4,-1 -7,-1 -2,0 -3,1 -5,1 -1,0 -2,0 -4,0l-8 0c-1,0 -3,0 -4,0 -1,0 -1,1 -2,1 -2,1 -5,0 -7,0 -5,0 -9,1 -15,2 -2,0 -4,0 -7,0 -2,0 -4,1 -6,2 -1,0 -2,1 -4,1 -1,0 -2,0 -3,0 -1,0 -2,1 -3,1 -1,0 -3,0 -4,0 -2,0 -3,1 -6,1 -2,0 -4,1 -6,1 -3,1 -6,1 -9,2 -3,1 -5,2 -8,2 -4,0 -9,1 -14,2 -2,1 -4,1 -6,1 -1,0 -3,0 -4,0 -2,0 -5,1 -7,2 -4,1 -9,-1 -14,-1 -2,0 -5,0 -7,0 -2,0 -4,-1 -6,-1 -3,0 -9,1 -11,-1 -2,-2 -4,-6 -6,-8 -2,-2 -4,-4 -5,-7 -2,-3 -6,-8 -4,-11 0,0 1,-2 2,-2 1,0 2,0 3,0 1,-2 -1,-4 -2,-5 -2,-3 -4,-6 -7,-9 -1,-2 -1,-3 -2,-4 -1,-1 -2,-3 -2,-4 -1,-4 -2,-7 -6,-9 -2,-1 -4,-2 -5,-4 -1,-2 -2,-2 -4,-4 -7,-5 -14,-9 -21,-13 -1,0 -2,-1 -3,-1 -1,0 -2,0 -3,0 -2,0 -3,-2 -5,-3 -3,-2 -7,-2 -11,-2l-12 0c-2,0 -4,0 -6,0 -2,-1 -4,-3 -6,-4 -3,-2 -8,-6 -11,-4 -4,2 -7,3 -11,4 -2,1 -3,1 -5,0 -2,0 -3,-1 -5,-1 -3,1 -4,4 -8,4 -2,0 -4,-2 -5,-3 -1,-2 -1,-3 -2,-5 -1,-3 -2,-5 -4,-8 -2,-3 -3,-6 -3,-9 0,-3 -1,-4 -3,-7 -1,-1 -2,-3 -2,-4 0,-1 0,-2 0,-3 0,-1 0,-1 -1,-1 0,-1 -1,-2 -1,-3 0,-2 0,-3 -1,-5 -1,-1 -1,-1 -1,-2 0,-1 0,-2 0,-3 0,-1 -1,-2 -1,-4 -1,-3 -2,-5 -4,-7 -3,-3 -5,-5 -9,-4 -3,0 -6,0 -9,1 -5,2 -10,6 -12,11 -1,3 0,6 -2,9 -2,2 -6,5 -6,8 0,3 4,6 6,8 2,2 4,3 5,5 1,3 -2,5 -2,8 0,3 1,6 5,5 1,0 2,-2 4,-2 2,0 3,0 5,0 3,-1 6,-1 10,-1 3,0 6,-1 8,-2 1,0 4,-2 5,-2 2,0 4,4 5,5 0,1 0,2 1,3 1,1 3,2 3,4 1,4 0,7 -4,9 -2,1 -4,1 -7,1 -2,0 -5,0 -7,0 -1,0 -2,-1 -3,-1 -1,0 -2,-1 -3,-1 -2,-1 -3,-2 -4,-2 0,-3 -5,-4 -7,-3 1,3 2,3 5,3 1,0 2,1 3,2 1,2 -1,1 -2,2 -2,1 -4,2 -6,3 -2,1 -5,1 -7,1 0,1 0,3 -1,4 -1,1 -1,1 -2,2 -1,1 -1,1 -3,1 -2,0 -2,-1 -3,0 -2,1 -3,2 -5,3 -2,1 -5,2 -7,3 -6,1 -12,2 -18,4 -2,1 -4,2 -7,3 -2,1 -5,1 -8,2 -2,0 -3,0 -5,0 -1,0 -2,1 -4,1 -3,0 -5,2 -8,3 -5,2 -10,5 -14,7 -2,1 -4,3 -7,4 -2,1 -4,2 -7,3 -5,3 -10,4 -15,4 -4,0 -7,-1 -11,0 1,2 2,4 4,5 1,1 2,2 2,3 1,2 0,1 0,3 -1,2 0,3 -2,5 -1,1 -3,2 -4,2 -1,0 -2,0 -3,0 0,0 -1,1 -1,1 -1,0 -3,1 -5,1 0,1 1,2 2,3 0,1 1,2 1,3 0,2 0,4 2,6 0,0 2,1 2,2 0,2 0,1 -1,3 0,1 0,6 0,6 1,2 4,2 5,5 1,2 0,4 1,6 2,3 5,5 5,9 0,4 2,8 5,11 1,1 2,1 3,2 1,1 2,2 3,3 1,1 3,1 4,2 1,1 2,2 2,4 0,2 0,3 1,5 1,1 1,2 2,4 2,3 5,5 8,7 2,1 3,2 4,4 0,2 1,3 1,4 0,2 0,4 0,6 0,2 2,3 3,4 2,1 2,1 2,4 0,2 0,3 0,5 -1,3 -3,6 -3,9 -1,3 0,7 0,10 0,2 0,3 -1,6 -1,2 0,4 0,6 0,1 -1,1 -1,2 0,1 0,2 0,3 0,1 -1,2 -2,3 -1,1 -3,2 -4,3 -1,1 -3,2 -4,4 -1,1 -1,2 -2,4 -1,1 -2,2 -3,3 -5,4 -10,5 -15,7 -2,1 -4,1 -7,1 -2,0 -3,1 -6,1 -2,0 -3,1 -5,1 1,0 -2,-1 -2,-1 -1,0 -1,0 -2,-1 -1,0 -2,-1 -3,-1 -1,0 -1,-1 -2,-1 -2,-1 -3,-2 -4,-3 -2,-2 -2,-3 -2,-5 0,-2 -1,-2 -2,-3 -2,-3 4,-6 1,-11 -2,-3 -5,-6 -8,-6 -1,0 -3,0 -3,0 -1,0 0,-2 0,-3 0,-1 -2,-3 -3,-3 -2,-1 -2,-1 -4,-1 -2,0 -2,-2 -2,-4 0,-4 -1,-7 -4,-11 -1,-2 -1,-3 -1,-4 -1,-1 -2,-3 -2,-4 -1,-2 -3,-4 -4,-6 -1,-2 0,-3 1,-5 1,-1 2,-3 2,-4 1,-2 1,-3 1,-4 0,-1 1,-2 1,-2 0,-1 0,-2 0,-3 0,-1 1,-2 1,-3 0,-1 -1,-1 -1,-2 -1,-4 3,-5 7,-7 6,-3 12,-9 12,-16 0,-3 0,-5 2,-7 1,-2 3,-2 5,-3 1,-1 2,-3 4,-4 2,-1 4,-2 6,-4 2,-3 3,-6 3,-9 0,-4 -1,-8 -1,-12 0,-2 0,-5 -1,-7 -1,-2 -3,-4 -5,-5 -1,-1 -3,-3 -4,-5 -1,-2 0,-4 0,-6 0,-1 -1,-3 -2,-5 -1,-2 -1,-3 -3,-5 1,-1 1,1 3,1 1,0 3,0 4,0 1,0 2,0 4,0 1,0 2,1 3,1 -1,-1 -1,-2 -2,-3 -1,-1 -1,-2 -2,-3 -2,-2 -3,-4 -5,-5 -2,-2 -4,-3 -6,-5 -2,-2 -3,-3 -5,-5 -3,-3 -4,-8 -6,-13 -1,-3 -1,-6 -2,-9 -1,-2 -2,-3 -3,-5 -1,-1 -3,-3 -3,-5 0,-2 1,-2 3,-3 2,-1 3,-1 5,-2 1,-1 3,-2 4,-3 2,0 4,-1 6,-1 2,0 4,-1 6,-2 2,0 4,-1 6,-2 1,0 1,-1 2,-1 1,0 2,0 3,0 1,0 2,-1 3,-2 1,-1 2,-1 4,-2 2,-1 4,-1 6,-2 3,-2 9,-1 11,-4 2,-3 2,-7 4,-9 1,-2 2,-3 4,-4 1,0 1,0 2,-1 1,-1 1,-1 2,-2 3,-2 7,-3 10,-5 2,-2 0,-6 -1,-9 -2,-3 -4,-6 -5,-10 -1,-3 -1,-7 -3,-10 -1,-1 -3,-2 -5,-3 -2,-1 -2,-1 -4,-2 -2,0 -3,-2 -5,-2 -2,-1 -3,-1 -5,-2 -2,-1 -3,-2 -5,-4 -1,-1 -3,-3 -4,-3 -4,-1 -7,0 -11,-2 -2,0 -5,-4 -6,-1 0,1 1,3 0,4 0,1 -1,1 -2,2 -1,1 -2,1 -2,2 0,0 0,1 -1,2 -1,1 -4,3 -5,3 -2,0 -4,0 -7,0 -2,0 -3,2 -4,3 -1,1 -3,3 -4,4 -2,1 -4,0 -5,2 1,0 4,-1 5,0 3,1 0,3 -2,4 -1,1 -3,2 -4,0 -2,-2 1,-2 0,-4 -1,-1 -5,0 -6,0 -2,0 -4,1 -6,1 -2,0 -4,-1 -4,2 0,1 1,2 1,4 0,1 0,4 0,6 0,1 -2,2 -2,4 0,1 0,2 0,3 0,1 -1,1 -1,2 0,1 0,2 0,3 -1,0 -1,0 -1,1 0,2 0,4 -1,6 0,1 -1,3 -2,4 -1,2 -4,4 -7,5 -2,1 -4,1 -5,2 -1,0 -1,1 -2,1 -1,0 -2,1 -2,1 -3,1 -6,3 -9,4 -2,1 -4,2 -6,2 -1,0 -2,1 -3,1 0,0 -2,1 -2,1 -3,1 -6,3 -10,4 -4,1 -7,2 -10,5 -1,1 -2,3 -3,4 0,0 -2,1 -2,1 0,0 -1,1 -1,1 -1,1 -3,2 -5,3 -1,1 -2,2 -3,3 -2,1 -3,2 -4,4 -2,2 -4,3 -6,5 -2,2 -4,4 -6,5 -3,2 -5,3 -8,5 -2,2 -5,3 -7,4 -2,1 -4,2 -6,2 -4,1 -7,1 -11,1 -2,0 -4,0 -6,1 -1,0 -3,0 -5,0 -2,0 -2,1 -4,1 -2,0 -3,0 -5,0 -4,0 -7,0 -11,-1 -2,-1 -2,-1 -5,0 -2,0 -3,0 -5,0 -2,0 -3,0 -5,0 -1,0 -3,-1 -4,-1 -2,-1 -2,-4 -5,-4 -3,-1 -6,1 -9,2 -3,1 -6,2 -8,4 -2,1 -5,3 -6,4 -1,2 1,2 1,4 0,1 0,2 0,4 0,1 1,1 1,2l0 2c0,2 1,2 1,3 1,3 -2,7 -5,8 -1,1 -4,0 -5,0 -2,0 -4,1 -6,2 -4,1 -7,0 -11,-3 -2,-2 -5,-4 -8,-5 -2,-1 -4,-1 -7,-1 -2,0 -3,-1 -5,-2 -2,-1 -3,-1 -5,-2 -2,-1 -2,-2 -5,-1 -3,1 -6,2 -8,3 -1,1 -3,1 -4,2 -3,2 -4,5 -6,7 -1,2 -3,3 -5,5 -1,2 -3,4 -4,6 -1,1 -2,2 -4,3 -2,1 -3,1 -5,2 -1,1 -2,2 -3,2 -1,0 -2,1 -3,1 -1,0 -4,0 -5,2 0,2 2,3 0,5 -1,1 -3,1 -5,2 -3,2 -6,5 -10,7 -3,2 -8,4 -8,8 0,3 1,4 1,7 0,2 -1,4 -1,6 0,1 -1,2 -1,2 0,1 0,2 0,3 0,2 -3,3 -4,5 2,2 2,3 1,6 0,1 -1,2 -1,4 -1,1 -1,2 -1,3 0,2 1,1 2,3 1,1 0,3 -1,4 -1,2 -2,4 -3,5 2,1 0,2 0,3 0,1 0,3 0,5 0,3 0,6 0,8 0,2 -1,2 -2,4 -1,1 0,2 -1,3 0,1 -1,1 -2,2 -1,2 -1,4 -1,6 0,2 -1,5 0,6 1,2 3,1 5,1 2,0 6,1 6,4 0,1 -1,2 -1,3 0,1 0,2 0,3 0,2 -1,3 -2,5 0,2 0,3 -1,5 -1,2 -2,3 -4,4 -2,1 -4,2 -5,2 -2,0 -4,-1 -6,0 -2,0 -3,1 -6,1 -2,0 -4,0 -7,0 -1,0 -2,0 -3,0 -1,0 -1,1 -2,1 -2,0 -3,0 -5,1 -2,1 -4,2 -6,3 -1,1 -3,2 -4,3 -1,3 1,3 -2,5 -1,1 -3,2 -3,3 -1,1 -1,3 -2,4 0,1 -1,1 -2,1 0,0 0,1 0,1 -1,1 -1,1 -2,2 -1,2 -1,3 -1,5 0,2 -1,3 -2,5 -1,2 -1,3 -2,5 -1,2 -3,2 -5,4 -1,1 -2,2 -3,2 -2,2 -5,3 -7,4 -2,1 -4,3 -6,4 -1,1 -1,1 -2,2 -1,1 -3,1 -4,2 -2,1 -3,2 -6,3 -2,1 -2,2 -4,3 -3,3 -6,6 -11,8 -4,2 -6,5 -9,7 -3,2 -8,0 -9,4 -1,2 1,2 3,3 2,1 2,2 4,3 3,2 6,3 9,6 1,1 2,3 2,5 0,1 -1,1 -1,2 0,1 0,2 0,3 -1,3 -1,4 -1,7 0,1 0,2 0,3 0,1 1,1 1,2 0,2 -1,4 0,6 0,1 1,3 2,4 0,1 2,2 2,3 0,1 0,2 0,3 1,2 2,4 2,6 0,2 0,3 -1,5 -1,2 -3,3 -5,5 -2,1 -3,2 -6,1 -2,0 -4,-1 -6,-2 -4,-2 0,-6 -1,-10 0,-2 -2,-3 1,-4 2,0 3,0 4,-2 1,-3 -1,-3 -3,-4 -2,-1 -4,-2 -5,-4 -1,-2 0,-3 -3,-5 -1,-1 -3,-2 -4,-3 -2,-2 -4,-5 -6,-8 -2,-2 -5,-4 -7,-7 -1,-1 -1,-3 -2,-4 -2,-2 -3,-2 -5,-3 -3,-2 -5,-4 -6,-7 -1,-1 -1,-3 -2,-4 -1,-1 -2,-3 -3,-4 -2,-4 -3,-7 -8,-8 -2,0 -3,0 -5,-1 -1,-1 -3,-1 -4,-2 -3,-2 -4,-6 -7,-9 -3,-3 -6,-4 -9,-6 -2,-2 -4,-2 -6,-4 -1,-1 -1,-2 -2,-3 0,-1 -1,-2 -1,-3 -2,-3 -5,-5 -7,-7 -3,-3 -5,-6 -8,-9 -3,-2 -6,-4 -9,-7 -1,-1 -2,-2 -4,-3 -1,0 -1,0 -2,-1 -2,-1 -4,-2 -6,-3 -3,-2 -6,-3 -9,-4 -2,-1 -5,-1 -7,-2 -2,-1 -4,-2 -6,-3 -1,0 -3,-2 -4,-2 -1,0 -2,0 -3,-1 -1,-1 -2,-2 -3,-3 -2,-1 -4,-1 -6,-2 -2,0 -3,-2 -5,-2 -2,0 -4,0 -6,0 -2,0 -3,-1 -5,-1 -2,0 -4,-1 -7,-1 -2,0 -4,0 -6,0 -1,0 -1,-1 -2,-1 -1,0 -2,0 -3,0 -2,0 -3,-1 -6,-1 -2,0 -10,3 -12,0 -1,-2 1,-3 2,-5 2,-3 0,-2 -2,-2 -1,0 -1,-1 -3,-1 -1,0 -2,0 -3,0l-6 0c-2,0 -4,0 -6,0 -2,0 -3,-1 -5,-1 -4,-1 -7,-3 -11,-3 -1,0 -3,-1 -4,-1 -2,0 -1,0 -3,0 -2,0 -4,0 -6,0 -4,0 -8,-1 -11,2 -2,2 -1,3 -2,5 -1,1 -3,3 -4,4 -1,1 -3,2 -5,3 -1,1 -3,2 -4,3 -1,1 -2,2 -3,3 -2,2 -4,2 -6,3 -3,2 -8,0 -11,3 -1,1 0,3 -2,4 -1,1 -3,2 -5,2 -1,0 -3,1 -4,1 -1,1 -2,1 -3,2 -2,1 -4,2 -6,2 -1,0 -2,0 -3,1 -1,1 -2,2 -3,2 -2,1 -4,0 -6,0 -3,0 -6,2 -9,2 -2,0 -4,1 -6,2 -3,1 -5,4 -8,6 -2,1 -6,0 -7,1 -1,1 1,4 -1,6 -1,1 -2,0 -3,0 -1,0 -1,1 -2,1 -2,1 -3,2 -5,3 -1,0 -3,1 -5,1 -1,0 -3,1 -4,2 -1,2 -1,3 -3,4 -2,1 -3,1 -6,1 -4,1 -7,3 -11,3 -2,0 -4,0 -6,0 -2,0 -4,1 -7,1 -2,0 -5,0 -7,0 -3,0 -5,0 -7,1 -3,1 -5,1 -8,1l-6 0c-2,0 -3,0 -5,-1 -1,-1 -2,-1 -4,-2 -2,-1 -3,-3 -4,-3 -1,-1 -3,-1 -4,-2 -3,-2 -6,-5 -9,-7 -1,-1 -1,-1 -2,-1 -1,-1 -1,-1 -2,-2 -1,-1 -1,-1 -2,-2 0,0 -1,-1 -1,-2 -2,-4 -7,-2 -9,-6 -1,-1 -1,-3 -1,-5 -2,-2 -4,-1 -4,1 0,4 4,6 7,7 1,0 2,0 3,1 1,1 1,2 2,3 1,1 2,2 3,3 -2,0 -3,1 -5,1 -2,0 -4,1 -6,1 -2,0 -3,-1 -5,-1 -2,0 -3,0 -5,0 -3,1 -5,3 -8,1 -1,-1 -2,-2 -4,-3 -2,-1 -2,0 -4,0 -3,1 -6,-2 -6,-6 0,-3 -1,-3 -3,-6 -1,-1 -1,-3 -1,-5 1,-2 4,-2 6,-2 2,0 3,1 4,2 2,1 8,3 8,0 -1,0 -1,-1 -2,-1 0,0 -2,0 -2,-1 -1,-1 -2,-4 -3,-5 -1,-3 -1,-3 0,-6 1,-2 0,-2 -1,-3 -1,-1 -2,-2 -3,-3 -2,-1 -3,-1 -5,-1 -2,0 -4,-1 -5,-3 0,-1 0,-2 0,-3 0,-1 -1,-1 -1,-2 -3,1 -6,1 -9,0 -2,-1 -2,-1 -4,-2 -1,-1 -2,-2 -2,-2 -1,-1 -2,-1 -3,-2 -1,-1 -1,-1 -1,-2 -1,-1 -3,-2 -4,-3 -3,-3 -6,-7 -10,-9 -4,-2 -8,-3 -11,-6 -3,-4 -7,-7 -10,-11 -3,-3 -7,-7 -9,-11 -2,-3 -2,-5 -5,-7 -2,-2 -3,-2 -6,-2 -3,0 -4,-2 -5,-5 -1,-2 -3,-4 -4,-7 -2,-4 -5,-6 -7,-10 -1,-2 -3,-4 -4,-6 -1,-1 -1,-2 -2,-3 0,-1 -1,-1 -1,-2 0,-1 -1,-1 -1,-1 -1,0 -1,0 -1,-1 0,-1 -1,-1 -1,-2 -1,-1 -1,-2 -2,-3 -1,-2 -2,-3 -3,-5 -2,-4 -5,-6 -7,-10 -1,-3 -3,-6 -4,-9 -1,-4 -2,-7 -4,-10 -1,-2 -1,-4 -2,-5 -1,-2 -2,-4 -2,-6 0,-2 -1,-4 -2,-6 -1,-2 -2,-3 -3,-4 -3,-2 -6,-4 -7,-8 -1,-1 -1,-3 -1,-4 0,-1 -1,-1 -1,-2 -1,-2 -1,-3 -2,-5 -1,-3 -3,-6 -3,-9 0,-2 0,-5 0,-7 0,-2 0,-4 0,-6 1,-3 3,-6 5,-9 2,-3 3,-6 5,-9 1,-1 2,-2 2,-4 1,-1 2,-1 2,-2 1,-1 0,-1 1,-2 1,-2 3,-3 3,-5 1,-2 0,-3 0,-5 0,-2 0,-4 0,-5 0,-1 -1,-2 -1,-3 0,-1 0,-2 0,-3 0,-2 -1,-4 -1,-6 0,-1 -1,-3 -2,-4 -1,-2 -1,-3 -1,-5 0,-2 1,-3 1,-5 0,0 1,0 2,0 1,-2 1,-4 1,-7 0,-2 1,-2 2,-4 1,-2 0,-4 1,-6 0,-1 0,-2 0,-3 0,-1 1,-1 1,-2 0,-2 0,-4 0,-6 0,-1 2,-2 3,-4 1,-1 1,-3 2,-4 1,-1 3,-2 3,1 1,0 3,-2 5,-3 2,-1 3,0 4,-3 0,-3 -2,-5 -3,-7 -1,-1 -1,-3 -2,-4 -1,-1 -1,0 -1,-2 0,-1 1,-1 1,-2 0,-2 0,-4 0,-6 0,-2 0,-3 1,-5 1,-3 2,-6 2,-9 0,-2 1,-4 1,-6 0,-2 0,-3 0,-5 0,-7 1,-14 -1,-21 0,-1 0,-2 0,-3 0,-1 -1,-1 -1,-2 0,-1 0,-2 0,-3 0,-1 -1,-2 -1,-3 -1,-3 0,-7 0,-10 0,-2 0,-4 0,-6 0,-2 -1,-2 -1,-4 0,-2 0,-4 0,-6 0,-2 1,-2 1,-4 0,-2 0,-4 0,-6 0,-2 1,-3 1,-5 1,-1 2,-2 2,-3 0,-1 0,-2 0,-3 0,-1 1,-2 1,-3 0,-2 1,-3 1,-4 1,-2 3,-5 4,-7 0,-2 0,-5 1,-7 2,-5 8,-5 10,-10 2,-5 5,-9 7,-13 1,-2 2,-4 4,-6 1,-1 1,-2 2,-3 1,-1 2,-2 3,-3 0,-1 1,-2 1,-3 0,-1 1,-2 1,-3 0,-2 0,-5 0,-7 0,-3 -1,-4 -2,-7 -1,-2 -1,-5 -2,-7 -1,-2 -1,-4 -2,-6 0,-1 -2,-2 -2,-3 0,-1 0,-2 0,-3 0,-1 -1,-2 -1,-3 0,-1 0,-3 0,-4 -1,-3 -1,-5 0,-8 0,-2 1,-4 2,-5 0,-1 1,-1 2,-2 0,-1 0,-1 1,-2 1,-1 2,-2 2,-2 0,-1 0,-1 1,-2 1,-1 3,-2 2,-3 0,-1 -3,-2 -4,-3 -1,-1 -2,-3 -3,-4 -3,-3 -4,-5 -5,-9 -1,-4 -3,-6 -6,-8 -2,-1 -4,-3 -6,-5 -1,-1 -3,-1 -4,-2 -2,-1 -4,-1 -6,-1 -2,-1 -4,-2 -5,-3 -2,-1 -3,-3 -5,-4 -2,-1 -3,-1 -5,-2 0,0 -2,0 -2,-1 -1,0 -2,-1 -2,-1 -1,-1 -4,-1 -5,-2 -1,-1 -2,-3 -4,-4 -2,-1 -3,-3 -5,-4 -2,-2 -3,-4 -5,-6 -1,-1 -2,-3 -4,-3 -1,0 -2,-1 -2,-1 0,-1 0,-1 -1,-2 -1,-1 -2,-2 -3,-3 -1,-1 -2,-2 -3,-3 -3,-3 -5,-5 -7,-8 -1,-2 -2,-3 -4,-4 -1,0 -2,-1 -3,-1 0,0 -2,-1 -2,-1 -4,-1 -9,0 -13,0 -1,0 -1,-1 -2,-1 -1,0 -2,0 -3,0 0,0 -4,-3 -4,-1 -2,1 -4,2 -6,1 -2,0 -5,-1 -6,-3 -1,-1 0,-2 -1,-3 0,-1 -1,-1 -2,-2 -1,-1 -4,-2 -5,-2 -1,0 -2,0 -3,0 -1,0 -2,-1 -3,-2 -2,0 -5,-1 -7,-2 -1,-1 -2,-1 -3,-1 -1,0 -3,0 -4,-1 -2,-1 -4,-3 -6,-3 -2,0 -3,3 -5,4 -1,1 -2,1 -4,2 -3,1 -6,3 -10,3 -6,0 -13,0 -19,0 -4,0 -7,-1 -10,-2 -1,-1 -3,-1 -4,-1 -2,-1 -3,-1 -5,-1 -3,0 -5,-1 -7,-2 -3,-1 -6,-2 -9,-4 -4,-2 -8,-2 -12,-2 -2,0 -5,0 -3,3 1,1 3,1 5,2 2,2 0,2 -2,3 -2,1 -3,2 -5,2 -2,0 -4,0 -6,0 -1,0 -1,1 -2,1 -1,0 -2,0 -3,0 -2,0 -3,1 -6,1 -2,1 -5,1 -7,1 -3,1 -7,2 -9,4 -3,2 -7,3 -11,2 -2,-1 -4,-2 -6,-3 -2,0 -4,0 -6,0 -2,0 -4,-1 -7,-1 -2,0 -4,1 -7,1 -2,0 -5,-1 -7,0 -2,0 -3,1 -6,1 -2,0 -5,0 -7,0 -1,0 -2,-1 -4,-2 -2,-1 -4,-1 -6,-1 -2,0 -4,-1 -6,-1 -5,0 -9,0 -13,-1 -2,-1 -4,0 -6,-2 -1,-1 -3,-1 -4,-1 -2,-1 -4,-2 -6,-1 -2,1 -2,2 -4,2 -3,0 -8,1 -11,0 0,0 0,-1 0,-2 -1,0 -2,-1 -3,-2 -1,-1 -2,-1 -3,-2 -1,-1 -1,-1 -2,-2 0,0 -2,0 -2,-1 -2,-1 -4,-1 -6,-2 -1,-1 -1,-1 -3,-1 -1,0 -1,1 -2,1 -2,1 -5,1 -8,2 -2,0 -4,0 -6,1 -1,0 -3,1 -3,2 -1,1 0,3 0,4 0,2 -2,3 -2,4 -2,0 -2,0 -3,1 -2,1 -3,0 -5,1 -2,1 -4,3 -7,4 -2,-3 -8,-4 -11,-6 -1,-1 -2,-2 -4,-3 -1,0 -2,0 -3,-1 -2,-1 -3,-2 -5,-3 -2,-1 -3,-2 -5,-4 -1,-1 -2,-2 -3,-2 -1,0 -1,-1 -2,-1 -2,-1 -3,-3 -5,-4 -2,-1 -4,-2 -6,-2 -1,3 4,4 6,6 1,1 1,0 1,2 0,1 0,1 0,2 -1,1 -2,1 -2,1 -2,1 -4,3 -5,5 -1,2 -1,3 -4,3 -1,0 -2,0 -3,-1 -4,-2 -7,-6 -11,-8 -1,0 -1,-1 -2,-1 -1,0 -1,0 -2,0 -1,0 -2,-1 -2,-2 -2,-1 -4,-1 -6,-3 -1,-2 -2,-2 -3,-4 0,-1 0,-3 1,-4 2,-3 5,-3 7,-5 2,-1 3,-3 4,-5 1,-1 2,-2 3,-3 2,-1 3,-2 3,-4 0,-2 0,-3 2,-4 2,-1 4,0 7,-1 1,0 1,-1 2,-1 1,0 2,0 3,0 1,0 2,-1 3,-2 1,0 2,-1 2,-1 1,-1 1,-1 2,-2 1,-1 2,-1 3,-1 2,-1 3,-3 5,-5 1,-1 2,-2 3,-3 0,-1 1,-2 1,-3 0,-1 1,-2 1,-3 1,-2 3,-3 3,-5 0,-1 0,-2 1,-4 1,-1 1,-1 2,-2 1,-1 2,-4 3,-5 0,-1 0,-2 0,-3 0,-1 1,-1 1,-2 0,-2 1,-3 1,-4 1,-3 2,-6 4,-9 1,-1 2,-3 2,-4 1,-2 0,-4 0,-6 0,-3 0,-3 2,-6 2,-2 2,-2 1,-5 -1,-1 -2,-2 -2,-4 0,-2 0,-4 0,-6 0,-2 0,-4 0,-7 0,-3 -3,-5 -2,-8 0,-2 2,-5 2,-7 1,-2 1,-4 2,-6 0,-2 1,-3 1,-4 0,-2 -1,-2 -1,-3 0,-1 1,-3 1,-4 1,-2 1,-6 1,-8 0,-1 -2,-2 -2,-3 0,0 1,-2 1,-2 2,-4 5,-8 6,-13 1,-2 2,-5 2,-8 0,-3 1,-5 2,-8 0,-1 1,-2 2,-3 0,-1 0,-2 0,-3 0,-1 1,-1 1,-2 0,-1 0,-1 0,-2 0,-1 1,-2 1,-4 0,-1 1,-2 1,-4 0,-1 0,-2 0,-4 0,-3 1,-4 1,-7 0,-3 0,-5 -1,-7 -1,-2 -3,-4 -5,-5 -2,-2 -5,-2 -7,-2 -3,0 -5,2 -8,1 -1,-3 3,-7 4,-9 1,-1 1,-2 2,-3 0,0 1,-1 2,-1 0,-1 0,-1 0,-2 1,-3 3,-5 5,-7 3,-3 3,-4 1,-8 -1,-1 -2,-4 -1,-5 1,-1 4,-1 5,-1 1,0 3,-2 4,-3 1,-1 1,-3 1,-4 3,-4 4,4 5,6 1,3 3,5 3,9 0,2 -1,4 -2,6 -1,2 -1,4 -2,6 -1,2 -2,2 -2,4 0,1 0,4 0,5 1,1 4,0 5,0 1,0 2,1 3,2 1,1 2,2 3,4 1,1 2,2 2,3 0,2 0,4 0,6 0,2 1,3 2,5 1,2 1,4 0,5 0,1 -1,2 -1,3 0,1 0,1 0,2 -1,3 -5,5 -6,8 -1,2 0,4 0,5 0,1 -2,2 -2,4 3,-1 3,-6 5,-8 1,-2 1,-3 3,-4 1,-1 3,-1 3,-3 0,-1 -1,-2 0,-3 0,-1 1,-1 2,-1 1,-2 -1,-2 -2,-3 0,-1 0,-3 1,-4 1,-2 1,-3 2,-4 1,-2 2,-3 3,-4 2,-2 3,-2 3,-5 0,-2 0,-3 1,-5 0,-1 1,-2 1,-3 0,-2 0,-3 1,-5 1,-2 1,-4 1,-6 1,-1 2,-1 2,-3 0,-1 0,-1 0,-2 0,-2 1,-2 1,-4 0,-2 -1,-3 1,-5 1,-1 2,-2 2,-3 2,-2 4,-4 5,-7 2,-3 2,-7 4,-11 1,-2 2,-5 3,-8 1,-3 1,-7 2,-10 1,-3 1,-6 2,-9 0,-1 1,-3 1,-4 0,-1 0,-2 0,-3 0,-1 0,-1 1,-1 0,-1 1,-4 0,-4 -1,-1 -4,0 -4,0 0,2 -1,4 -4,5 -3,1 -5,-1 -5,-3 0,0 1,-1 1,-1 0,-1 0,-1 0,-2 0,-1 1,-2 1,-3 0,-2 0,-2 1,-3 0,0 1,-1 2,-1 3,-1 3,0 6,0 3,0 4,0 5,-3 2,-4 6,-7 9,-11 1,-1 2,-5 0,-6 -1,0 -3,1 -4,1 -1,0 -2,0 -4,0 -1,0 -3,0 -4,0 -1,0 -1,1 -2,2 -1,1 -4,3 -7,2 -1,-1 -2,-3 -3,-4 -1,-1 -5,-4 -4,-5 1,-1 4,1 5,1 3,0 5,-5 7,-7 2,-2 3,-5 6,-6 1,-1 3,-1 4,-2 2,-1 2,-2 2,-4l0 -12c0,-2 0,-4 0,-6 0,-2 1,-4 1,-6 0,-5 4,-8 6,-12 1,-2 1,-3 2,-5 1,-2 2,-3 3,-5 1,-3 3,-4 4,-7 1,-2 3,-4 4,-6 1,-1 2,-3 4,-4 2,-1 4,-2 6,-3 1,-1 2,-2 3,-3 1,-1 3,-2 5,-3 3,-2 5,-5 7,-8 2,-3 5,-5 7,-8 1,-1 2,-2 2,-4 0,-2 0,-3 1,-5 5,-7 11,-13 15,-21 1,-3 1,-6 -2,-8 -2,-1 -3,-2 -2,-4 0,-2 1,-3 1,-5 0,-2 0,-4 0,-6 0,-1 -1,-2 -1,-3 0,-1 0,-2 0,-3 0,-1 1,-4 0,-6 0,0 -2,-1 -3,-1 -1,0 -2,0 -3,-1 -2,-1 -1,-3 -2,-5 -2,-3 -5,-5 -8,-7 -1,-1 -3,-2 -4,-2 -2,-1 -3,-1 -5,-1 -1,0 -1,-1 -2,-1 -1,0 -1,0 -1,1 -1,0 -2,0 -3,0 -1,0 -1,1 -2,1 -1,1 -2,0 -4,1 -4,1 -7,3 -12,2 -3,-1 -3,-1 -6,0 -1,1 -3,2 -4,3 -2,1 -4,0 -6,0 -2,0 -4,0 -6,0 -2,0 -3,-1 -5,-2 -1,-1 -3,-1 -5,-1 -4,-1 -8,-3 -12,-4 -2,-1 -4,-1 -7,-2 -2,0 -4,0 -6,-1 -5,-2 -9,-2 -13,-3 -2,-1 -4,-2 -7,-2 -2,0 -3,0 -5,1 -4,1 -9,2 -13,2 -1,0 -3,0 -4,0 -1,0 -2,1 -3,1 -2,0 -4,0 -6,0 -2,0 -4,0 -6,0 -1,0 -2,1 -3,1 -1,0 -2,0 -3,0 -2,0 -2,2 -4,4 -1,1 -3,2 -5,3 -2,0 -4,0 -6,0 -2,0 -4,1 -6,1 -1,0 -2,0 -4,0 -1,0 -3,1 -4,1 -2,0 -4,-1 -6,0 -1,0 -1,1 -2,1 -1,0 -2,0 -3,0 -1,0 -2,0 -3,1 -1,0 -2,1 -2,1 -3,1 -6,1 -10,1 -2,0 -4,1 -6,1 -4,1 -8,-1 -11,-1 -1,0 -3,0 -4,0 -1,0 -2,1 -3,1 -1,0 -2,0 -3,0 -1,0 -2,0 -3,1 -2,1 -4,0 -6,0 -2,1 -4,0 -6,1 -4,1 -8,2 -11,3 -3,1 -6,3 -10,5 -2,1 -3,2 -5,4 -2,1 -4,2 -6,3 -4,2 -9,4 -13,5 -7,2 -14,4 -20,6 -2,1 -4,1 -5,2 -1,2 0,3 -1,5 0,2 -1,2 -1,4 0,1 0,2 0,3 0,2 -1,4 -2,5 0,2 0,2 -2,4 -1,1 -2,3 -3,5 0,1 0,1 0,2 0,0 -1,1 -1,1 -1,1 -1,1 -1,2 0,2 -1,4 -1,6 0,2 1,4 0,6 0,1 -2,2 -2,4 0,2 1,4 1,6 1,1 1,2 2,4 0,2 1,4 1,6 0,1 0,2 0,3 0,1 -1,1 -1,2 0,1 0,2 0,4 0,1 -1,1 -1,2 0,1 0,2 0,3 0,1 -1,1 -1,2 0,2 0,4 -1,6 -2,4 0,8 -1,12 0,1 -1,2 -1,3 0,1 0,2 0,3 0,2 -1,3 -2,5 0,1 0,1 -1,2 0,1 -1,1 -2,2 -3,2 -6,4 -9,7 -2,1 -4,3 -6,4 -2,1 -2,1 -2,3 0,2 0,4 -1,6 0,2 0,4 0,6 0,2 -1,4 -1,6l0 5c0,2 -1,4 -1,6 0,2 1,4 0,6 -1,3 -3,6 -5,8 -1,1 -2,2 -3,3 -1,1 -2,1 -2,1 -1,1 -2,2 -3,3 -1,1 -1,2 -1,2 -1,1 -1,1 -2,1 -2,1 -2,3 -4,4 -4,3 -8,4 -12,6 -1,1 -3,1 -5,2 -2,1 -3,2 -5,3 -4,2 -9,4 -13,6 -3,2 -5,3 -8,4 -2,1 -4,2 -7,3 -2,0 -4,1 -5,2 -1,1 -2,3 0,4 2,1 2,-2 4,0 2,1 2,3 3,4 2,1 4,1 5,2 1,1 4,2 4,3 1,1 0,4 0,6 0,1 0,3 0,3 0,1 -1,1 -2,1 -1,2 0,3 -1,5 -2,2 -5,4 -7,5 -2,1 -4,1 -6,1 -2,0 -4,-1 -5,1 -1,1 0,4 -2,5 -1,1 -5,0 -6,0 -2,0 -3,-2 -5,-2 -1,0 -2,0 -3,0 -1,0 -1,-1 -2,-1 -2,0 -3,0 -5,-1 -2,-1 -3,-1 -5,-1 2,5 -4,6 -4,1 0,-2 1,-4 -1,-6 -1,-1 -3,-1 -4,-3 7,-2 -2,-8 -4,-11 -1,-2 -3,-3 -5,-5 -1,-1 -2,-1 -4,-1 -1,0 -2,-1 -4,-1 -1,0 -1,1 -2,1 -1,0 -1,0 -2,0 -1,0 -2,1 -4,1 -3,0 -6,0 -10,0 -2,0 -5,-1 -7,0 -1,0 -2,1 -4,1 -3,0 -6,-1 -9,0 -1,0 -2,1 -4,2 -2,0 -3,0 -5,0 -2,1 -4,3 -7,3 -3,1 -5,2 -8,3 -2,2 -6,2 -8,4 -2,2 -3,4 -6,5 -3,1 -7,2 -10,2 -2,0 -3,1 -5,1 -1,0 -2,-1 -3,-1 -1,0 -4,-1 -5,-1 -1,0 -2,1 -4,1 1,1 4,0 4,2 -3,1 -6,-2 -9,-3 -1,-1 -2,-3 -4,-3 -2,-1 -4,0 -6,0 -1,0 -2,-1 -4,-1 -1,0 -2,0 -3,0 -2,0 -4,0 -6,0 -2,0 -4,1 -7,1l-1 0 0 285c2,1 4,3 7,4 4,3 7,6 9,9 3,4 6,8 9,12 3,3 6,6 8,10 3,4 5,7 8,10 2,4 4,7 7,11 1,2 3,4 5,6 1,1 3,2 4,3 3,3 6,6 8,9 2,4 6,6 8,9 3,3 5,6 9,9 3,2 6,4 8,7 3,3 5,7 9,9 3,2 6,5 9,7 2,1 3,2 5,3 2,1 3,2 4,3 1,2 2,3 4,5 1,1 2,3 4,4 3,3 6,6 9,8 6,4 12,9 18,14 1,1 3,2 5,3 1,1 2,2 3,2 2,1 4,2 6,3 1,1 2,1 3,1 1,1 2,2 3,3 3,2 6,3 9,4 2,1 4,0 6,1 2,0 4,1 6,2 4,0 9,0 13,0 6,0 12,0 18,0 1,0 2,0 3,0 1,0 1,1 2,1 2,0 4,0 6,0 4,0 9,1 12,3 3,1 6,2 9,3 2,1 4,2 6,3 1,1 2,1 4,2 2,0 4,0 6,1 8,2 13,8 20,13 1,1 3,2 5,3 2,1 3,3 5,4 3,2 7,5 9,8 1,1 0,1 1,2 0,0 2,1 2,2 2,0 4,0 5,0l6 0c1,0 2,0 3,0 1,0 2,1 3,1 1,0 2,0 3,0 0,0 1,1 2,1 2,1 3,1 5,1 4,0 9,-1 12,0 4,1 8,2 12,4 2,1 4,2 6,3 1,0 2,1 3,1 1,1 2,1 3,1 4,1 8,4 11,6 4,2 6,6 10,8 1,1 2,1 3,1 2,1 2,2 4,3 0,0 2,1 2,1 1,0 2,1 3,1 2,0 4,1 6,1 1,0 2,0 3,1 1,0 3,0 4,1 1,1 2,4 4,4 1,0 2,-1 3,-1 1,0 2,1 4,1 1,0 2,0 3,0 1,0 2,1 3,1 2,1 5,0 7,0 2,0 4,0 7,0 2,0 3,2 5,2 5,1 11,0 16,0 2,0 4,0 7,0 1,0 1,1 2,1 1,0 2,0 4,0 1,0 1,1 2,1 2,0 4,-3 6,-4 3,-1 6,1 9,0 1,0 1,-2 1,-3 -1,-3 -1,-2 1,-5 -1,-2 -5,-3 -3,-6 2,-3 6,1 8,2 2,1 3,2 5,3 0,0 1,1 1,1 1,1 1,2 1,3 3,3 6,-5 6,-7 2,0 4,1 6,1 1,0 5,-4 5,-1 0,1 -3,5 -4,6 -2,3 -1,2 2,3 5,1 3,8 4,11 1,2 3,3 5,4 2,1 4,2 4,4 0,1 -1,2 -1,3 0,1 1,1 1,2 1,3 1,3 -1,5 -2,2 -2,3 -5,3 -2,0 -3,-2 -3,-4 -1,-2 -2,-4 -3,-5 -1,-2 -2,-3 -4,-4 -2,-1 -4,-1 -6,-1 -1,1 -3,4 -3,5 -1,0 -3,2 -4,3 0,1 0,1 -1,2 0,1 -1,1 -1,1 0,1 -1,4 -1,4 1,1 5,1 6,2 1,1 1,2 2,2 1,0 2,1 2,1 1,1 2,2 3,3 1,1 3,2 4,4 0,0 0,2 1,2 1,1 2,2 2,3 6,7 11,16 18,23 0,0 1,1 2,1 1,1 1,2 2,3 0,0 2,1 2,1 1,1 2,2 2,2 3,3 6,6 10,9 3,3 6,5 10,7 4,2 8,2 11,4 0,0 1,1 2,1 0,0 2,0 2,1 1,1 1,4 2,6 1,2 2,3 3,6 1,3 2,5 3,7 2,3 4,6 6,9 1,2 2,4 3,5 1,1 2,2 3,3 1,1 2,3 3,4 3,3 5,7 8,10 1,1 2,2 3,4 1,2 2,4 4,6 2,1 4,2 6,3 1,1 2,2 3,3 3,2 5,4 8,5 3,2 4,4 6,7 1,1 2,3 3,4 1,2 3,3 4,5 0,1 1,1 1,2 1,1 1,1 2,2 1,1 2,3 3,3 1,1 2,1 3,2 2,1 3,2 5,4 4,4 6,10 11,14 1,2 6,4 4,6 -2,1 -2,1 -2,4 0,1 1,3 2,4 -1,1 -2,2 -3,2 -2,1 -3,1 -5,1 -2,0 -10,2 -7,5 1,1 4,1 6,2 2,1 2,4 4,5 2,1 3,0 5,0 2,0 4,2 5,3 2,3 0,9 0,12 0,2 0,4 0,6 0,2 -1,3 -1,5 0,4 -4,2 -7,4 -2,1 -3,1 -3,3 0,2 0,3 -1,6 -1,1 -1,2 -2,3 -1,1 -2,2 -3,3 -1,1 -1,4 -1,5 0,2 0,4 0,6 0,3 1,7 2,10 1,3 2,7 4,10 1,2 3,5 5,7 2,2 4,5 6,7 3,3 7,2 11,2 2,0 5,0 7,1 2,0 4,1 6,1 7,2 11,8 15,12 2,3 3,5 4,7 1,1 1,3 2,4 1,1 1,2 1,2 0,1 1,1 1,2 1,0 2,2 4,1 0,0 1,-2 1,-2 1,-1 0,-1 1,-2 2,-2 5,-2 6,-5 1,-3 3,-3 6,-5 2,-1 5,-5 6,-7 0,-2 -1,-3 -1,-4 0,-2 0,-4 -1,-6 -3,-3 -6,-3 -9,-5 -1,-1 -3,-2 -4,-2 -1,-1 -3,-2 -4,-3 -3,-2 -5,-3 -4,-7 2,0 3,0 4,-2 0,-2 -1,-4 1,-5 3,-1 4,2 5,3 1,1 3,0 4,1 3,2 4,5 6,7 2,2 3,5 5,6 3,2 7,0 10,3 1,1 2,2 2,4 1,1 2,2 2,3 2,3 4,6 6,8 1,1 2,2 2,4 0,3 -1,2 -3,4 -2,3 -1,7 2,9 3,2 6,3 10,5 4,2 7,4 10,6 2,1 3,1 5,2 2,1 3,2 5,2 7,2 11,5 14,11 2,4 6,2 9,3 1,0 1,1 2,1 3,1 6,2 9,3 3,2 5,5 7,7 1,0 1,1 2,1 3,2 6,5 9,7 1,1 3,2 4,3 1,1 1,2 2,2 0,0 1,2 1,2 2,3 5,5 6,8 1,2 2,3 2,4 0,2 0,4 0,6 0,2 -1,4 -2,6 0,2 0,4 0,6 0,1 -1,1 -1,2 0,1 0,2 0,3 -1,2 -2,3 -3,4 -2,1 -3,2 -4,3 -2,2 -2,2 -2,5 1,4 4,4 6,7 1,1 2,2 3,3 1,1 1,2 2,2 1,1 2,1 3,2 1,1 2,2 3,3 1,1 4,0 5,0 2,0 4,0 6,1 2,2 4,3 7,4 2,0 4,1 5,0 1,-1 1,-4 1,-5 0,-4 1,-7 -2,-10 -1,-1 -2,-2 -4,-3 -2,-1 -3,-1 -4,-2 -1,-1 -2,-3 -2,-4 -1,-1 -2,-4 -1,-6 1,-2 5,-1 7,0 1,1 2,2 3,3 1,2 1,3 3,4 2,1 4,0 5,2 2,2 3,2 3,4 0,2 2,3 3,5 1,1 2,2 3,4 1,2 0,5 0,7 -1,2 -2,2 -1,5 1,2 3,3 5,4 3,2 6,4 9,6 5,5 10,10 10,17 0,1 -1,5 0,6 2,2 4,0 5,-2 0,-2 0,-4 0,-6 -1,-2 -2,-2 -2,-5 0,-2 1,-3 2,-4 0,-1 0,-3 1,-4 1,-1 3,-3 4,-3 1,0 2,0 3,0 1,0 2,0 3,1 4,1 8,-1 12,0 2,0 3,2 5,2 2,1 5,2 7,0 3,-1 2,-7 6,-6 2,0 3,3 4,4 2,2 4,0 6,-1 3,-1 7,-2 8,2 0,2 -1,4 1,5 1,1 3,1 5,2 1,0 2,2 4,2 2,1 4,0 6,0 2,0 3,-1 5,-1 2,0 3,1 5,1 2,0 2,0 4,1 2,1 3,1 5,2 3,2 7,3 11,4 4,0 7,0 8,5 0,3 2,3 3,5 1,2 1,3 2,5 1,2 1,2 1,4 0,2 1,3 2,4 1,1 2,2 2,4 1,1 1,3 1,5 1,2 2,5 4,7 1,1 3,2 4,3 1,1 2,2 4,3 3,1 6,2 9,2 4,1 7,2 10,3 3,1 6,3 9,0 3,-3 -1,-5 -2,-8 1,-1 4,-1 5,-2 1,-2 -2,-3 -2,-5 0,-2 3,-2 5,-2 2,0 4,1 6,1 1,3 -3,5 -2,8 1,2 3,3 4,5 1,1 0,2 0,3 1,1 3,2 4,2 2,1 4,2 5,4 2,2 1,5 2,8 0,1 0,2 1,4 0,1 0,1 0,2 0,1 1,1 1,2 1,2 1,7 0,9 -1,4 -3,5 1,7 2,2 3,2 6,2 3,0 6,0 8,0 0,0 1,1 1,1 1,0 2,0 3,0 2,0 4,0 6,0 3,0 7,2 10,2 1,0 2,-1 3,-1 1,0 3,0 5,0 3,0 5,-2 8,-3 4,-2 1,-4 2,-7 1,-3 5,-3 8,-3 2,-1 2,-3 4,-4 1,-1 2,0 4,0 3,1 10,0 13,-1 3,-1 6,-3 7,-6 0,-1 0,-2 0,-3 0,-1 1,-1 1,-2 0,-2 -1,-3 -2,-5 -1,-1 -2,-3 -3,-5 0,-3 0,-3 -2,-5 -1,-2 -2,-3 -3,-5 -1,-2 -3,-3 -4,-5 -1,-2 -1,-3 -2,-4 -1,-1 -3,-3 -4,-4 -3,-3 -7,-4 -9,-7 -1,-1 -1,-2 -1,-4 -1,-3 -2,-3 -4,-5 -1,-1 -3,-2 -5,-3 -1,-1 -1,-1 -2,-2 -1,-2 0,-2 -1,-3 0,-1 -1,-1 -1,-2 0,-1 1,-2 1,-3 0,-2 0,-4 0,-5 1,-2 2,-2 3,-3 1,-1 2,-3 3,-3 1,0 2,0 3,0 1,0 2,-1 3,-1 2,0 4,0 6,-1 2,-1 4,-2 6,-3 1,0 2,-1 3,-1 1,-1 1,-2 3,-3 7,-4 15,-8 22,-12 3,-1 5,-3 8,-4 2,-1 5,-2 7,-3 2,-1 6,-3 4,-5 -1,-1 -2,0 -3,-1 -1,0 -2,-1 -3,-1 1,-1 2,-3 4,-3 0,-3 3,-6 3,-10 0,-1 -1,-1 -1,-2 0,-1 1,-1 1,-2 0,-2 0,-4 2,-5 1,-1 3,-2 4,-2 2,-1 4,-1 6,-2 1,-1 3,-1 4,-2 2,-1 0,-4 3,-5 2,-1 3,1 5,0 2,0 3,-2 5,-3 2,0 4,-1 5,-1 1,0 2,1 2,1 1,0 2,0 4,0 2,0 3,1 6,1l6 0c2,0 5,0 7,0 1,0 1,-1 2,-1 2,0 4,0 5,0 3,0 7,1 10,3 3,2 5,4 8,7 3,3 2,8 5,10 1,1 4,1 6,1 3,0 3,2 4,4 2,2 5,4 8,6 3,2 6,3 9,5 1,1 3,1 3,3 1,2 0,4 0,5 0,2 0,4 0,5 0,2 2,3 3,5 1,3 1,6 2,9 1,4 6,1 8,1 1,-2 0,-4 -1,-6 0,-2 0,-1 1,-2 0,0 2,-1 2,-1 1,0 3,2 5,2 2,1 3,2 4,4 1,3 0,3 3,3 2,0 5,-1 6,1 0,1 -1,4 -2,5 0,0 -1,2 -2,2 -1,1 -2,1 -3,1 -5,2 1,6 2,9 0,2 1,4 0,5 -1,1 -1,0 -2,1 -1,1 -1,2 -2,3 -1,1 -1,4 -3,3 0,0 -1,-1 -1,-2 -5,-4 -12,-3 -11,4 1,7 4,14 8,20 2,3 4,5 5,8 1,2 0,4 1,6 0,2 2,3 4,5 1,1 1,2 2,3 0,1 1,2 1,3 1,1 2,2 3,3 2,3 4,7 7,9 2,1 3,2 5,3 2,1 4,2 5,3 3,3 4,8 7,11 3,2 5,5 8,8 1,1 2,2 3,3 1,1 3,2 4,3 6,4 9,11 8,18 0,1 -1,1 -1,2 0,1 0,2 0,3 0,0 1,1 1,2 0,1 0,2 1,3 1,1 4,1 5,2 0,0 1,1 1,2 1,1 1,1 1,3 1,3 3,7 6,9 2,1 3,0 5,1 2,1 3,3 4,5 1,2 4,4 5,6 1,1 1,3 2,4 1,2 2,3 3,6 1,3 -2,6 -3,9 -1,3 -1,7 -2,10 -1,1 0,2 -2,3 -2,1 -4,-1 -5,1 -1,1 0,2 -1,4 0,1 -2,2 -2,4 0,2 1,3 2,5 1,2 2,4 3,6 1,1 1,1 2,2 1,1 1,2 1,3 1,2 2,4 3,6 2,2 4,4 6,7 2,3 5,6 6,9 1,7 -5,10 -9,15 -1,1 -1,2 -3,2 -2,1 -4,0 -6,0 -1,1 -2,2 -3,2 0,0 -1,1 -2,1 -1,1 -1,1 -2,2 -1,1 -2,3 -2,4 0,2 3,2 5,3 1,1 2,1 3,2 1,1 3,2 4,3 1,1 0,3 1,5 1,1 1,2 2,3 1,2 1,6 0,8 0,1 -1,2 -1,3 0,2 -1,2 -1,4 -1,3 -1,6 -2,9 -1,5 0,11 1,16 2,5 2,11 3,17 1,3 2,5 3,8 1,3 -1,6 -1,9 0,1 0,3 0,4 0,2 1,2 1,4 0,3 0,6 0,9 0,3 -1,5 -2,8 0,1 0,2 -1,4 0,1 -1,3 -1,4 1,3 5,2 5,5 0,2 -3,4 -4,6 -1,0 -3,-2 -4,-2 -1,0 -3,2 -3,3 -2,3 -4,6 -3,10 1,2 1,4 2,6 1,2 1,3 1,5 1,2 1,2 3,3 3,0 4,0 5,-3 1,-2 3,-7 6,-4 1,1 1,4 1,5 -1,2 -4,2 -3,5 0,1 1,4 2,5 1,2 2,2 4,2 2,0 4,-1 6,-1 1,0 4,-2 5,0 1,2 -3,4 -4,6 -1,2 0,4 0,6 0,1 0,2 0,3 0,1 -4,175 -4,175 0,1 4,-172 3,-172 -1,2 -1,1 -2,2 -1,1 -2,2 -3,3 -1,1 -3,2 -4,3 -1,1 -2,4 -2,6 0,1 0,2 0,3 0,1 -1,1 -2,1 -1,1 40,175 39,188l698 115 1082 -678 0 0c0,-2 -1,-3 -1,-5z"/>
  <path class="fil1" d="M1328 3592c-2,0 -3,-2 -4,-1 -2,1 1,4 1,5 1,1 1,3 3,4 2,0 3,-3 1,-4l-1 -3z"/>
  <path class="fil1" d="M985 3230c2,1 3,1 5,3 2,2 4,3 5,5 1,2 2,3 5,2 3,-1 3,-3 4,-5 -2,-2 -3,-3 -5,-4 -1,-1 -2,-3 -3,-4l0 -1c-3,-1 -2,-4 -4,-5 -1,0 -2,0 -3,0 -2,0 -2,-1 -4,0 -5,2 -3,9 1,11z"/>
  <path class="fil1" d="M1048 3265c-1,2 6,6 8,5l1 -3c-2,-1 -8,-5 -9,-2z"/>
  <path class="fil1" d="M914 2254l-2 -1c0,0 0,0 -1,-1 -1,1 -3,1 -4,2 -1,0 -2,1 -3,1 -1,0 -1,-1 -2,-1 -4,-1 -8,0 -11,4 -1,2 -1,3 -2,4 -1,1 -2,3 -2,4 -1,3 -2,7 -1,11 0,3 1,2 3,3 2,1 3,2 5,0 4,-2 4,-6 6,-9 2,-4 5,-7 9,-10 3,-3 6,-5 6,-9z"/>
  <path class="fil1" d="M3565 3286c3,-3 2,-6 2,-10l-1 -1c-4,0 -7,0 -11,2 -2,1 -3,2 -5,2 -1,0 -2,1 -3,1 -1,0 -2,1 -3,1 -1,0 -2,0 -3,0 -1,0 -1,1 -2,1 -1,0 -2,0 -3,0 -1,0 -1,1 -2,1 -2,0 -4,-1 -6,0 -1,0 -2,1 -3,1 -1,0 -3,0 -4,0 -4,0 -8,3 -11,4 -4,2 -9,3 -14,4 -1,0 -5,1 -5,2 -1,3 3,2 4,2 4,1 8,0 10,4 1,2 1,3 1,5 1,1 2,2 2,3 0,1 0,2 1,3 0,2 0,4 0,6 0,1 1,1 1,2 0,1 0,3 0,4 1,1 2,3 3,5 1,2 1,4 1,6 0,2 1,4 -1,6 -1,2 -4,3 -5,4 -2,1 -3,1 -6,1 -2,0 -5,-1 -6,0 -2,1 0,1 -1,2 -1,2 0,1 -1,2 0,0 -1,1 -2,1 -1,0 -2,1 -2,2 -1,1 -4,1 -5,2 -2,1 -3,1 -5,2 -2,1 -9,5 -9,8 0,0 0,1 0,1 4,1 8,-1 12,-2 2,0 4,0 5,0 2,0 4,-1 6,-1 4,0 7,-1 11,-1 4,0 9,1 12,0 2,-1 3,-1 5,-1 2,0 3,-1 5,-1 4,-1 7,-1 12,-1 4,0 8,0 11,-1 3,-1 7,-3 10,-4 4,-2 5,-3 3,-7 -1,-3 -1,-8 -1,-11 0,-1 2,-2 1,-4 0,-2 -3,-3 -4,-5 -2,-2 -3,-3 -3,-5 0,-3 2,-3 2,-5 0,-1 0,-1 0,-2 0,-1 1,-2 1,-3 0,-2 -1,-4 -1,-5 -1,-4 -3,-9 -2,-13 1,-3 6,-4 8,-6z"/>
  <path class="fil1" d="M3519 3048c-1,1 -3,1 -3,2 2,0 9,0 9,-3 0,0 -1,0 -1,0l-2 -3c-1,1 -2,3 -3,4z"/>
  <path class="fil1" d="M3601 3224c-2,1 -3,1 -4,2 -2,1 -3,3 -4,3 -2,1 -3,1 -5,2 -2,1 -3,3 -5,4 -2,1 -3,1 -5,3 -3,1 -8,6 -1,6 2,0 3,-1 5,-2 2,-1 3,-1 5,-2 2,-1 3,0 5,-1 2,-1 3,-2 4,-2 3,-1 6,-2 8,-4 1,-1 2,-2 2,-4 0,-1 1,-5 -2,-4l0 -2c-1,0 -3,1 -4,1z"/>
  <path class="fil1" d="M3720 3024c-3,-2 -6,-4 -9,-6l-8 -12c-7,1 -8,-11 -14,-13 0,-4 1,-5 -1,-8 -2,-2 -8,-5 -11,-4 -6,3 -7,17 -4,23 2,6 7,8 7,14 -1,4 -4,7 -5,11 0,2 -1,3 -1,5 1,3 2,2 4,4 8,8 25,18 37,7 4,-4 8,-7 9,-14 1,-6 2,-5 -3,-9z"/>
  <path class="fil1" d="M3227 3294c-1,0 -3,0 -5,0 0,3 7,2 9,2 0,0 0,0 0,-1l1 -3c-1,1 -2,1 -3,1 0,0 -2,1 -2,1z"/>
  <path class="fil1" d="M3476 3152c3,1 6,1 9,0 4,0 4,-3 4,-6 0,-1 1,-3 1,-4 0,-1 2,-3 2,-5 0,-2 -1,-2 -2,-3 -1,-1 0,-2 -2,-3l0 -2c-2,-3 -7,2 -9,3 -2,2 -4,4 -5,7 -1,1 -2,2 -2,3 0,1 0,1 0,2 0,1 -1,1 -1,2 -1,4 1,6 5,6z"/>
  <path class="fil1" d="M3498 3103c0,3 -1,4 2,4 2,0 4,-1 4,-3l2 -4c-4,0 -8,-4 -8,3z"/>
  <path class="fil1" d="M3515 3078l0 -1c-1,-2 -3,-3 -4,-1 -1,3 2,2 4,2z"/>
  <path class="fil1" d="M3508 3087c0,3 4,2 5,2l1 -4c-1,0 -6,0 -7,2z"/>
  <path class="fil1" d="M3246 3296c-1,2 2,5 3,7 2,2 5,2 8,2 0,0 0,-1 0,-1l2 -3c-3,0 -10,-9 -13,-4z"/>
  <path class="fil1" d="M3227 3273c-2,-3 -5,-4 -8,-3 -3,1 -6,3 -9,4 -2,1 -9,1 -6,5 1,1 4,2 5,2 2,1 5,1 7,1 3,1 7,0 10,0 1,0 4,0 5,0 1,1 2,2 2,3 1,0 1,0 2,0 1,1 1,1 1,2 1,1 2,2 4,2 2,0 4,0 5,0 2,-1 3,-3 5,-4 2,-1 3,0 5,-1 2,-1 4,-1 6,-2 3,-2 5,-5 6,-7 2,-3 0,-5 -2,-7 -1,-1 -3,-2 -4,-2 -1,-1 -2,-3 -4,-3l-1 -4c-3,1 -5,3 -8,5 -1,1 -3,2 -4,4 -1,2 0,3 -1,5 0,2 -2,2 -3,2 -2,0 -3,1 -5,1 -2,0 -5,1 -6,0 -2,-1 -2,-2 -3,-3z"/>
  <path class="fil1" d="M2188 1260l10 10 0 0 1 1 1 1 3 1 1 0 0 0 1 0 5 -2 0 0 0 0 0 0 0 0 0 0 0 0 0 0 0 0 0 0 0 0 0 0 2 -2c0,2 0,4 0,6 0,3 0,6 1,9l0 0c2,5 4,12 11,17l0 0 2 2c0,1 0,2 0,4l-1 2 -1 1 0 0 0 0c-4,2 -8,6 -8,12l1 4 0 0c1,4 3,6 5,7l0 0 0 2 0 0 0 1 -2 1 0 0c-5,3 -7,6 -8,9l-1 2c0,0 -3,1 -5,1l0 0 0 0 0 0 -5 2c-2,1 -4,2 -5,5l0 0 -1 3c0,3 1,5 3,8l3 4 0 1 0 0c1,2 3,4 6,5 2,1 5,1 8,1 5,0 10,-1 13,-1l3 1 1 0c3,0 5,-2 6,-5 1,-2 1,-5 2,-8 1,-5 1,-7 1,-8l1 -2 0 0 1 -2 0 0 2 -3 0 0 0 0c1,-1 0,-1 4,-5l0 0c5,-5 7,-10 8,-12l0 0c3,-5 6,-12 6,-19 0,-4 -1,-7 -5,-10 -3,-2 -2,-2 -3,-3l0 0 -1 -1 0 0 -4 -4 0 0c-4,-4 -7,-8 -7,-9l0 0 0 0 0 0 -3 -5c-2,-3 -3,-7 -4,-10l-2 -4 0 -1 0 0 0 0 0 0 0 -1 0 0 -1 -1 0 0 0 0 -1 -1 -10 -7 0 0 -3 -2c0,-1 1,-3 1,-3l0 0 1 -2 0 -1 -2 -3 -1 0 -2 -1 -12 -5 0 0 0 0 0 0 0 0 -1 0 -11 0 -1 0 0 0 -1 0 0 0c-1,1 -7,4 -8,11l0 0 0 1c0,3 1,6 4,8l0 0z"/>
  <path class="fil1" d="M2189 1487l1 0 0 0 5 1 1 0 3 -1 0 -1 0 0c0,0 2,-3 6,-7 2,-2 3,-5 3,-8l0 -1c-1,-7 -5,-11 -7,-12l0 0 0 0c0,0 0,0 0,0 -1,-1 -2,-2 -4,-3 -2,-1 -5,-3 -9,-5 -3,-1 -5,-2 -7,-2 -2,0 -4,1 -6,1l0 0c-4,2 -6,6 -7,9l-1 4 0 1 0 0 0 0 0 0 0 1 0 0 0 0 0 0 0 0 0 1c1,3 3,8 6,13l0 0c1,2 3,5 7,5l0 0c4,0 6,-3 7,-4 0,1 0,1 0,2l0 1 2 3z"/>
  <path class="fil1" d="M2057 1239l2 5 1 4 0 13 0 1 0 0 0 0 0 0c1,2 4,10 11,15 2,2 2,1 3,3l0 0 0 0c1,1 2,3 4,5 7,7 17,7 18,7 1,0 9,0 18,-6 2,-2 7,-2 10,-2l3 0 1 0 0 0 0 0 1 0 0 0 1 0 2 0 0 0 0 0 0 0c4,-1 7,-2 11,-2 18,0 37,13 39,15l0 0 0 0 4 3 2 2 3 0 1 -2 0 -8c0,-1 0,-9 -6,-20l0 0c-2,-5 -3,-6 -3,-6l0 0c0,-2 -1,-4 -3,-6l0 0c-4,-6 -10,-6 -14,-6l0 0 0 0 0 0c-3,0 -5,0 -6,-1l0 0c-3,-1 -5,-2 -8,-2 -2,0 -4,0 -5,1 -3,1 -6,2 -13,2 -2,0 -4,0 -5,0l-2 0 -3 -8 0 -1 0 0 -1 -1 0 0 0 0 0 0c-1,-1 -4,-3 -12,-5l0 0 -4 -1c-2,0 -4,1 -5,2 -2,1 -2,3 -3,5l0 0c-1,2 -1,4 -4,7l-1 1 -3 -2c-2,-2 -3,-4 -4,-6l0 -1 0 -1 -2 -1 -1 0 -1 0 -17 -5 -5 -1 -2 -1 -3 1 -1 3 1 2 0 0z"/>
  <path class="fil1" d="M2264 1416c-2,0 -4,0 -7,0 -7,0 -11,4 -12,6l0 0 -1 6c0,7 4,13 6,16l0 0 1 1 0 0 0 0 1 1 0 0 1 0 0 0 10 3 0 0 0 0 0 0 0 0 0 0c0,4 2,8 5,9 3,1 7,1 11,1l2 0 2 3 0 0c1,1 1,2 1,4l0 0c0,2 0,6 3,10 3,5 8,6 10,6l0 0 0 15 -1 0 -1 0 -2 0 0 0 0 0 -1 0 -5 3 0 0 0 0 -1 1 0 0 0 0 0 0 -7 8 0 0 -1 1 0 0 -1 1 0 3 1 1 0 0 1 2 7 12 0 1 0 0 1 1 1 0 0 0 0 0 7 3 0 0 2 1 0 0 1 0 3 -1 1 -1 0 0 1 -1 0 0 5 -5 0 0c2,-2 7,-7 7,-15 0,-3 1,-11 1,-14l0 -1c1,-3 4,-9 5,-13 1,-3 1,-5 1,-8 0,-3 0,-7 -1,-9l0 0 0 0 0 -1 0 0 -1 -1 0 0 0 -1 -8 -10 -1 -1 0 0 0 -1 -2 -1 -5 0c-1,-1 -2,-3 -4,-6 -3,-4 -7,-9 -9,-11l0 0 0 0 0 0 0 0 0 0 0 0 0 0 0 0c-2,-2 -5,-4 -10,-6l0 0 -2 -1 0 0 0 0 0 -1 0 0 0 -1 0 -3c0,-1 0,-5 -3,-9l0 0c-3,-3 -7,-3 -12,-3l-4 0 0 0z"/>
  <path class="fil1" d="M2396 1711l0 -23 -1 -2 -2 0 -2 1c0,-2 0,-3 0,-4l0 0 0 0 0 0 0 -1c1,-3 2,-7 2,-12 0,-2 0,-5 -2,-8l0 0c-2,-3 -5,-4 -8,-4l0 0 0 0 0 0c0,0 -3,0 -6,0 -5,0 -11,1 -16,5 -3,3 -5,7 -5,12l0 3c2,16 5,20 9,22l0 0 2 1 -1 4 0 2 0 0 0 0 0 1 0 0 0 0 0 1 0 18 0 1 0 0 0 0 0 1 0 0 0 0 0 0c3,4 6,7 9,11l1 2c0,3 2,6 6,10l0 0c7,7 15,13 16,14l1 1 1 0 2 1 1 0 0 0 1 0 0 0 5 -2 0 0c3,-1 7,-4 8,-11l0 0c1,-1 2,-3 2,-5 0,-4 -2,-7 -5,-11l0 0 -4 -6c-3,-4 -3,-5 -7,-9 -2,-2 -4,-4 -6,-5 0,-1 -1,-3 -1,-6z"/>
  <path class="fil1" d="M2348 1555l0 1 1 2c2,4 5,12 6,16l1 4 0 0c1,4 2,10 6,14l0 0 -1 1 0 0 0 0 0 1 0 0 -9 15 0 0 -1 3 0 0 -1 1 0 2 2 2 2 1 3 1c1,0 6,2 12,2 3,0 6,-1 9,-2l0 0c4,-1 7,-2 11,-2 5,0 8,-3 9,-5 0,0 0,0 0,0l0 0c2,-2 2,-5 2,-8 0,-5 -2,-9 -2,-10l0 0 0 0 0 0 0 0 -1 -1 0 0 0 0 -8 -8 -1 -2c0,-3 -1,-7 -5,-9l0 0 0 0c-1,-1 -3,-8 -4,-12l0 0 0 0 0 0 0 0 0 0 0 0 0 0 0 -1c-4,-9 -6,-16 -9,-19l0 0c0,0 0,0 0,0l0 0c-2,-3 -5,-4 -8,-4l-1 0c-4,0 -6,3 -8,5 -2,2 -3,4 -3,5l0 0 0 1 0 0 0 1 0 7 0 1 0 0z"/>
  <path class="fil1" d="M2327 2080c12,0 28,2 42,7 14,6 19,7 24,8 2,0 4,0 6,-1 2,0 3,-1 6,-1 8,-1 15,-5 18,-12l0 0c1,-3 2,-5 2,-8 0,-5 -2,-10 -4,-14 -6,-9 -11,-12 -15,-14l-1 0 0 0 -3 -2 -2 -3 -3 -4 0 0 0 0c-9,-13 -24,-36 -45,-46 -13,-6 -23,-9 -31,-11 -9,-3 -16,-5 -20,-8l0 0c-8,-7 -15,-24 -15,-34 0,-7 0,-12 -3,-16 -3,-4 -9,-6 -19,-6 -7,0 -11,0 -13,-1 -3,-1 -5,-2 -11,-5 -4,-2 -8,-5 -12,-9l0 0 0 0 0 0c-8,-6 -15,-13 -24,-13l-3 0 0 0 -4 1 -3 1c-1,0 -2,0 -5,-2l-4 -3 0 0 0 0c-8,-5 -16,-10 -25,-11l-1 0 1 -4 1 -1 0 -5 0 -1c-1,-3 -4,-4 -7,-5 -2,-1 -5,-1 -8,-1 1,-1 2,-3 3,-6l0 -2c0,-4 -3,-9 -6,-13 -10,-12 -30,-24 -42,-28 1,-2 1,-5 1,-8 0,-8 -3,-18 -15,-26 -2,-4 -6,-11 -10,-17 -4,-6 -9,-12 -13,-14 -6,-3 -23,-13 -27,-18l-4 -4 0 0 0 0 0 0c-2,-3 -5,-5 -8,-8l0 0c-4,-3 -8,-3 -11,-3 -3,0 -5,1 -5,1l0 0 -3 1 0 0 -2 0 -2 2 0 2 1 1 0 0 1 3 0 0c1,1 2,4 5,8 2,3 5,6 8,10 -10,-7 -20,-13 -31,-16l0 0 -1 0 -21 -8 0 0c-10,-4 -18,-7 -21,-8 -3,-3 -32,-31 -52,-57l0 0 0 0 0 0 0 0 0 0c-3,-2 -15,-14 -30,-14 -8,0 -14,1 -18,2l0 0c-3,1 -4,1 -6,1 -2,0 -2,0 -3,0l-1 -1c-2,-2 -3,-3 -4,-3l-1 -1 0 0 0 0 0 0 0 0 -9 -19 0 0 0 -1 0 0 0 -1 -2 -2 -1 0 -1 0c0,0 -13,-3 -18,-4l-6 -9 0 -1 0 0 0 0 -1 -1 0 0 0 0 -1 0 -7 -3 0 0c-3,-1 -9,-4 -16,-4 -4,0 -8,1 -11,5 0,-1 -1,-3 -2,-4 -2,-3 -5,-5 -10,-5 -3,0 -7,1 -12,2l0 0c-5,1 -11,2 -15,2l-3 0 0 0 -1 0 0 -1 0 0c-1,-2 -2,-8 -9,-9l0 0c0,0 0,0 0,0l-2 -1 0 0c-5,-1 -12,-3 -21,-3 -3,0 -5,-1 -9,-3l0 0 0 0c-5,-3 -11,-7 -20,-7 -7,0 -14,-1 -20,-1l-1 0 -2 0c-3,0 -7,0 -9,0 -4,0 -8,-1 -14,-2l-2 0c-3,0 -6,-1 -9,-1 -3,-1 -5,-1 -7,-2l0 0c-2,-1 -4,-1 -6,-1 -4,0 -7,3 -11,7 -2,2 -3,3 -5,3 -2,0 -4,-1 -9,-4l0 0 -1 -1 0 0 -2 -1 -1 0c-5,0 -19,0 -33,1 -14,1 -29,2 -35,5 -5,3 -8,5 -10,7 -3,2 -3,3 -9,4l0 0c-3,0 -6,1 -9,1l0 0 0 0c-5,1 -10,2 -13,2l-3 0 0 0 -2 -1 -1 0 -3 0 -1 1 0 0 -1 1 0 0 0 0c-3,3 -13,10 -21,21 -9,10 -17,23 -17,36l0 2 0 1c1,3 3,8 7,14 5,5 13,10 25,10l3 0c14,-1 21,-4 25,-5l3 -1 2 0 0 0c6,2 17,3 30,3 12,0 24,-1 31,-3 6,-2 14,-6 22,-9 5,-2 11,-5 17,-7 5,-2 10,-4 11,-4 7,0 14,-1 19,-1 2,3 6,6 12,6 5,0 10,-3 15,-7 1,0 4,0 7,0 8,0 19,2 28,8 -1,0 -3,0 -4,0l-4 0 -1 0 -4 -2 -3 0 0 0 -2 0c-6,0 -12,2 -17,4 -5,3 -8,8 -8,13l0 3 0 0 0 0 0 0 0 0c0,3 4,16 20,20 6,1 10,2 14,2l1 0c1,3 2,8 7,11 5,4 12,7 24,7 2,0 3,0 4,0 7,6 19,15 31,15 4,0 8,-1 13,-4l0 0 0 0 0 0 0 0 0 0 0 0 1 0 1 2 0 0c8,16 23,24 43,26l0 0 1 0 0 0 2 0 0 0 1 0 0 0c1,-1 7,-4 11,-4 2,0 3,0 4,2l0 0 1 1 0 0 0 0 2 1 1 0 1 0c0,0 4,1 5,7 1,7 5,20 14,31 9,12 22,22 41,24l0 0 0 0c2,0 53,7 62,7l0 0c1,1 1,3 3,5 3,5 10,17 23,17 3,0 6,-1 9,-2l0 0c2,-1 4,-2 6,-3 3,-2 5,-3 6,-3l2 1c1,1 2,3 3,5 3,5 5,17 6,27 2,16 4,34 13,47l0 0c2,3 4,7 6,9l0 0 1 2c8,14 14,24 39,32 16,6 29,9 40,12l1 0c9,2 17,4 25,7 2,1 4,1 5,2 -2,1 -4,2 -6,4 -7,7 -11,13 -14,19 -1,0 -4,1 -10,2 -7,1 -15,2 -23,5 -7,2 -13,6 -15,13 0,1 -6,8 -6,18l1 5c1,6 6,11 12,14l1 1 1 0 2 0 1 0 1 -1c3,-1 8,-3 11,-3l2 1 0 0 1 1c2,4 4,6 6,7 3,2 5,2 10,2 1,0 3,0 5,1 1,0 3,0 5,0 6,0 15,-1 26,-2 13,-1 30,-3 44,-3 9,0 17,1 21,2l0 0c4,1 9,3 16,5l1 0c31,10 82,28 113,28l3 0c6,0 10,-1 13,-1 2,-1 4,-1 5,-3z"/>
  <path class="fil1" d="M2116 2205c-4,-6 -19,-22 -57,-32 -5,-1 -34,-13 -41,-17l-4 -2 0 0c-6,-4 -16,-10 -28,-10 -5,0 -9,1 -14,3 -7,2 -17,4 -22,4l-2 0 -2 0c-4,0 -8,3 -12,5 -3,3 -6,6 -7,7l0 0c-1,2 -11,12 -11,23l1 5 0 0 0 0 0 0 1 2 0 1 3 2 1 0 2 0c1,0 3,0 5,0 6,0 14,1 17,4l2 4c0,3 1,6 4,10 7,12 23,31 41,37l0 0 0 0 0 0 0 0 0 0 0 0c3,0 9,1 13,3 5,1 8,4 9,5l0 0c3,8 7,11 10,13l3 2 1 2c2,3 4,7 9,8l0 0 2 0c2,0 5,-1 7,-2l0 0 1 -1c3,-2 9,-6 9,-12l-1 -4 0 0c0,-1 -1,-2 -2,-3 0,0 1,-1 1,-1 2,8 5,13 11,15l0 0 1 0c2,0 6,-1 8,-5l0 0c4,-7 7,-7 8,-7l0 0c1,0 2,1 4,3l0 0c3,3 5,6 6,8l0 0c2,2 3,4 5,6 2,2 5,2 8,2l5 0c2,0 3,-1 5,-1 5,0 10,-1 17,-8 2,-3 4,-3 5,-4l3 0c2,0 4,0 6,-1l3 0 4 0c2,0 5,0 7,-3 0,0 0,0 0,0l0 0c2,-2 3,-4 3,-7 0,-3 -2,-7 -5,-12 -9,-14 -28,-36 -43,-40z"/>
  <path class="fil1" d="M2114 1595l0 4c0,9 5,14 9,15l0 0 1 1 1 0 2 0 1 0 1 -1c1,0 4,-2 8,-5 4,-3 8,-7 8,-13 0,-1 1,-3 3,-6l0 0 0 -1 0 0c2,-3 4,-7 5,-12 1,-5 1,-7 1,-10 0,-2 0,-3 1,-5l0 0 1 -3c0,-3 -2,-6 -4,-8l-6 -4 0 0c-3,-2 -6,-3 -8,-6l0 0c-2,-2 -3,-3 -5,-3l0 0 0 0c0,0 10,-14 10,-28 0,-5 -1,-11 -5,-15l0 0c-1,-1 -3,-7 -4,-13 -1,-7 -2,-14 -2,-21 0,-5 1,-9 1,-11l1 -3 1 -2 0 -2 -2 -2 -2 0 -3 -1 -22 -7 -3 -1 -2 0 -2 0 -1 2 0 5c0,18 -14,31 -26,39l0 0 0 0 0 0 0 0 0 0 0 0 0 0 0 0 0 0 0 0c-2,2 -6,7 -6,14l0 3c2,10 11,18 26,25l0 0 0 0 0 0 1 0 0 0 0 0c1,0 4,1 5,8 0,3 1,5 1,7l0 0c0,3 0,5 1,8 1,2 3,5 6,7l0 0c1,1 3,1 4,2l-1 1 0 1 -1 6c0,6 3,11 3,13l0 0 0 1 0 0 0 0 1 1 0 0 0 0 1 0 1 1 1 2c0,5 0,8 -2,16l0 0z"/>
  <path class="fil1" d="M2535 1971l-18 -4 0 0 0 0 0 0 0 0 0 0 -15 -2 0 0 -1 0 0 0 -2 0 0 0 -1 1 0 0 -7 5 0 0c0,0 -5,4 -7,6 -3,0 -7,1 -9,5 -1,1 -2,3 -2,6l1 3 0 0 1 3c0,2 1,4 2,6 2,2 4,4 9,5 3,1 5,1 8,1 3,0 6,0 8,-1l0 0 0 0 0 0 0 0 0 0 0 0 0 0 0 0 6 -1 1 0c1,2 4,4 6,4 3,0 5,-1 7,-2 5,-2 9,-4 12,-7l7 -3 1 0 2 -3c1,0 1,-1 3,-2l9 -5 1 -1 0 0 1 0 1 -3 0 -1 0 0 0 -2 0 0 -2 -9 0 0 -1 -4 0 -2 -2 -2 -2 0 -2 1 1 1 -1 -1 -3 2 -9 7z"/>
  <path class="fil1" d="M2624 1941l0 0 0 0 0 0 0 0 1 1 0 0 2 1 1 0 1 0 10 3 0 0 2 1 1 0 3 -1 0 -1 1 -2 0 0 4 -6c2,-1 3,-2 4,-3l1 -3c0,-5 -5,-8 -7,-10l0 0 -9 -7 0 0 -1 -1 0 0 -1 -1 -3 0 -1 0 -2 1c-4,2 -6,3 -8,5 -2,2 -2,5 -2,9 0,4 1,8 2,11z"/>
  <path class="fil1" d="M2569 1857l1 2 3 10 0 0 1 2 0 1 3 2 1 0 2 0 0 0 9 -1c4,1 10,2 19,2 4,0 6,0 9,-1 2,0 5,-2 5,-5l0 -2c0,-2 -1,-3 -2,-4l1 -2 0 -1 0 -1c0,-3 -1,-5 -2,-7l-1 -2 0 -1 -1 0 0 0 0 0 -1 -1 -1 0 -1 0 -17 -3 0 0 0 0 0 0 0 0c-1,0 -5,0 -15,2l0 0 -1 0 0 0 0 0 -1 1 0 0 0 0 0 0 -7 5 -1 1 -1 1 -1 3 0 1 0 0z"/>
  <path class="fil1" d="M2654 1938l-1 1 0 2 2 2 1 0 3 1 5 2 0 0 0 0 0 0 1 0 19 0 2 -2 0 -1 0 0 1 -2 0 0 3 -9 0 0 0 -1 0 0 0 0 0 -2 0 0 0 0 0 -1 0 0 -2 -5 -2 -6 -1 -3 -2 -2 -3 1 0 1 -1 -1 -2 -2 -1 0 -6 -3 -1 -1 -1 0 -2 0 0 0 -1 0c-4,1 -9,5 -10,13 0,4 1,7 1,10l-2 5 0 0 -1 3 0 0z"/>
  <path class="fil1" d="M2444 1839l0 1 2 8 0 3 0 2 1 2 2 0 1 -1 3 -1 0 0 9 -3 8 -3 22 -5 0 0 0 0 0 0 0 0 0 0 0 0 0 0 0 0 10 -5 0 0 1 -1 0 0 0 0 1 -1 0 0 0 0 0 -1 0 0 3 -9 0 0c1,-2 1,-3 1,-5 0,-2 0,-4 -1,-7l0 0c-2,-7 -6,-11 -8,-12l0 0 0 0 0 0 0 0 0 0 0 0 0 0 0 0 0 0 0 0 0 0 0 0 -3 -1 -1 -1 0 0c0,-10 -6,-14 -7,-14l-4 -2 -2 -1 -2 0c-1,-1 -1,-2 -1,-2l0 0 0 -1 -1 0 0 0 -2 -2 0 0 -1 0 0 0c-2,-1 -11,-4 -19,-4l-3 0 -2 2 0 1 -1 2 0 0 -1 1c-1,2 -3,8 -3,13 0,5 2,11 7,15l0 0c3,2 3,3 3,4l0 0c1,2 2,4 4,6 2,1 4,2 8,2 0,0 0,0 0,0 -1,1 -2,1 -2,1l0 0 0 0 -1 0 0 0 0 0 -1 1 0 0 0 0 0 0 -4 6 -9 4 0 0 0 0 0 0 -1 1 0 0 0 0 0 0 -5 5 -1 1 -1 0 -1 3 0 1 0 0z"/>
  <path class="fil1" d="M2480 2199l-4 0 -1 0 -1 0 -2 0 0 0 -1 0 0 0 0 0c-3,0 -11,2 -15,11l0 0c-1,3 -2,5 -2,7 0,5 2,8 4,11l0 0 0 0 1 3 0 2 0 1c0,2 1,5 3,7l0 0 1 1 0 0 1 1 4 6c0,3 2,7 7,11l0 0c4,3 8,4 11,5l0 0 4 1 0 0c3,2 6,2 10,2l0 0c2,0 4,0 6,0 3,0 4,1 6,2l0 0 0 0c1,0 2,1 4,1l3 -1 0 0 4 -4 1 -4 0 0 0 0 1 -4c1,-2 1,-4 1,-6 0,-3 -1,-7 -5,-10 -1,-1 -2,-3 -4,-5l0 0c-2,-3 -4,-6 -8,-10l-4 -4 -1 -1c-2,-2 -4,-4 -8,-5 1,-1 1,-2 1,-4l0 -2 0 0c-1,-3 -3,-5 -6,-7l0 0c-2,-1 -3,-2 -4,-3l0 0c-1,-1 -3,-2 -6,-2l-2 0 0 0 -1 0z"/>
  <path class="fil1" d="M2410 1681l0 0c0,0 0,0 0,0 7,4 14,5 15,6l0 0 3 1 1 0 2 0 1 -2 0 -1 0 0 1 -3 2 -10 0 0 0 -2 0 -1 -1 -3 -1 0 -1 -1 0 0 -10 -7 -2 -1 0 0 -1 -1 -4 0 -1 1 -2 2 0 0 -4 6c-3,1 -5,3 -5,6l0 0 0 1c0,3 2,7 7,9z"/>
  <path class="fil1" d="M2449 1660l2 0 3 -1c5,-1 7,-1 9,-3l0 0 2 -1 0 0c6,-2 10,-3 11,-4l0 0 0 0 0 0 0 0 0 0 0 0 5 -3 1 -1 1 0 1 -2 0 -16 -3 -3 -16 0 -2 1 -1 0 0 0 -1 1 -5 5c-2,1 -5,3 -8,8 -4,6 -5,11 -5,12l0 5 1 2 2 1z"/>
  <path class="fil1" d="M2509 1770l1 1 0 0 5 3 5 3 0 0 3 2 1 1 2 0 2 -2 0 -2 1 -3 0 0 2 -5 2 -5 0 0 1 -2c0,-1 1,-3 1,-5l0 0 1 -4 0 0 0 -2 -1 -2 -2 -1 -2 0 -4 0 -16 2 -2 0 -1 0 -2 3 0 14 1 2 1 0z"/>
  <path class="fil1" d="M2537 1805l-1 0 -3 0 -1 0 -2 1 0 0 -5 3 0 0c-1,0 -3,1 -5,3 -2,1 -4,4 -4,7l0 1c0,3 2,6 6,8l0 0 7 3 0 0 2 1 1 0 3 0 1 -1 0 0 1 -1 5 -5 0 0 1 0 0 0 1 -1 0 0 0 0 0 -1 0 0 2 -5 1 -2 0 -1 -1 -3 -1 -1 0 0 -2 -1 -5 -3 0 0 -1 -1 0 0z"/>
  <path class="fil1" d="M3410 2494l3 -5 0 0 0 0 0 0 0 0 2 -2c7,-1 11,-5 13,-8l0 0 0 0 0 0 0 0 1 -2 0 0 1 -1 0 -3 -1 -1 -2 -1 -7 -7 0 0 -1 -1 0 0 0 -1 -2 -1 -1 0 -1 0 -10 2 0 0 -1 0 0 0 0 0 -1 1 0 0 -1 1 0 0 0 0c0,0 -3,2 -6,3l0 0 0 0c-5,2 -6,2 -13,5l0 0c-9,4 -11,11 -11,13l0 4 3 3 12 0c1,1 3,2 6,4l0 0c2,2 5,2 7,2 5,0 9,-3 11,-6l0 0z"/>
  <path class="fil1" d="M3575 2890l-3 -2 0 0 0 -1 0 -1 -1 -1 0 0 -3 -5 0 0 0 0 0 0 -1 -1 0 0 0 0 -8 -5 0 0 -1 0 0 0 0 0 -1 0 -1 0c-1,0 -10,0 -16,8l0 0 -1 1c-2,3 -4,6 -4,10 0,3 1,6 3,9 2,3 3,6 4,8l-4 1 -2 0 -1 0 -2 2 0 12 1 2 1 0 1 1 0 0 7 5 0 0 0 0 0 0 2 1 2 0 0 0c0,4 1,8 2,10 1,2 2,4 3,4l0 0 1 2 0 0 1 1 3 0 1 -1 2 -1 7 -5 0 0 0 0 0 0 1 -1 0 0 0 0 0 -1 0 0 5 -8 0 0 1 -2 0 -1 0 -3 0 -1 -1 -1 -3 -6 3 -4 0 0c2,0 5,-1 6,-3l0 0c0,0 0,0 0,0l0 0c1,-1 2,-3 2,-6l0 -3 0 -1 0 0c1,-1 1,-3 1,-4 0,-3 -2,-7 -7,-9z"/>
  <path class="fil1" d="M3542 2570l-9 -7 0 0 -1 -1 -1 -1 -3 0 -1 0 -1 1 0 0c-1,1 -4,2 -7,4 -3,2 -6,4 -7,8l0 0 0 2c0,3 1,5 3,7l0 0c4,3 5,6 6,7l0 1 0 0 0 1 2 1 0 0 1 0 10 3 3 1 2 1 2 0 1 -2 0 -9 1 -4 0 0 0 -1 0 -2 0 0 0 0 0 -1 -2 -5 0 -1 0 0 0 0 -1 -1 0 0 -1 0 0 0z"/>
  <path class="fil1" d="M3423 2574l-4 -1 -1 0 -3 1 -1 1 -2 5 -1 1 1 3 1 1c2,1 4,3 6,5l3 4 0 0c3,8 10,11 11,11l0 0 1 0 1 0 1 0 0 10 3 3 8 0 3 -3 0 -11 -3 -3 -5 0c1,-2 2,-4 3,-5l0 0 0 -2c0,-4 -1,-7 -4,-10l0 0 -5 -7 0 0 -1 -1 0 0 0 -1 -2 -1 -9 0z"/>
  <path class="fil1" d="M3539 2698l-1 0 -2 2 0 1 0 2 0 0 -2 10 0 0 0 0 0 1 -1 0 -9 -3 0 0 0 0 -1 0 -20 0c-4,0 -7,2 -9,5l0 0 -1 5c0,3 1,5 2,7l0 18 0 1 0 0 0 0 0 0 3 6c0,3 2,10 8,14l0 0c2,2 5,3 7,3 3,0 6,-2 8,-3l0 0c2,-1 5,-3 10,-4l0 0c4,-2 8,-4 10,-8l0 0 0 -3c0,-2 0,-3 -1,-4 1,0 2,0 3,0 3,0 7,-1 10,-3 2,1 4,2 8,2 3,0 5,1 6,1l1 0 0 0 3 -1 0 0 0 0 4 0 1 0 1 -1 1 -1 0 -1 0 0 0 -1 0 -1 0 0 -2 -12 0 0c-1,-5 -3,-9 -7,-12l0 0c0,0 0,0 0,0 -3,-2 -7,-3 -9,-3l-2 0 0 -12c0,-3 -1,-6 -4,-7l0 0c0,0 0,0 0,0l0 0c-2,-2 -5,-2 -7,-2 -3,0 -6,1 -8,1l-2 1z"/>
  <path class="fil1" d="M3204 2434l0 0c-1,-4 -6,-12 -17,-12 -5,0 -8,0 -11,1l-1 -4 0 -3 0 -1c-1,-3 -4,-5 -7,-6 -3,-1 -7,-1 -12,-1 -7,0 -11,0 -14,1 -2,0 -4,0 -5,0 -2,0 -3,0 -5,-2 -4,-3 -7,-4 -9,-4l-1 0 -2 -2 0 0c-9,-11 -24,-16 -33,-16 -4,0 -11,1 -18,4 -7,3 -14,7 -18,13 -2,3 -3,6 -3,9 0,3 1,5 2,7l0 0 1 2 0 0c2,4 4,9 4,12l-1 4 -4 5 0 0 0 0c-4,4 -8,8 -8,14l0 1c0,4 3,7 7,10l0 0 2 1c8,5 17,12 26,12 3,0 6,-1 9,-3l0 0c3,-2 5,-4 6,-6l1 -1 2 2 1 1c2,2 4,4 6,5 3,1 7,2 13,3 6,1 10,3 14,4l1 0c4,1 8,2 12,2 2,0 5,-1 7,-2l4 -1c3,-1 8,-1 15,-6 4,-3 9,-5 12,-6l4 -1 1 0 0 0 1 0 0 0 2 -1 0 0 0 0 1 -1 0 0c4,-6 10,-13 10,-20 0,-3 2,-10 3,-13l0 0 0 0 0 0 0 -1 0 0 0 -1z"/>
  <path class="fil1" d="M2960 2342c-7,-12 -17,-28 -34,-33 -13,-4 -26,-11 -36,-17l0 0 0 0 -2 -1c0,0 0,0 0,0 5,-1 9,-4 12,-9l0 0 0 -1 0 0 0 -1 0 -23 -2 -3 -1 0 -2 0 -14 -2c-12,-2 -27,-3 -30,-3 -3,-1 -7,-3 -10,-4 -3,-1 -5,-3 -5,-3l-1 -2 0 0c-2,-3 -5,-8 -5,-10l0 0c1,-3 2,-5 3,-8l0 0 1 -1 0 0 0 -1 0 -3 0 -1 0 0 -1 -1 0 0c0,-1 -8,-12 -18,-15 -4,-1 -8,-2 -14,-5l0 0 0 0c-1,-1 -3,-2 -6,-3l-11 -10 0 0 0 0 -1 -1 0 0 -1 0 0 0c-6,-1 -17,-3 -25,-3 0,-3 -2,-10 -10,-15 -12,-7 -40,-16 -57,-17l-4 0 -4 0c-3,0 -2,0 -3,-1l0 0c-1,-1 -4,-3 -9,-3l-19 0c-1,-1 -3,-1 -6,-1l-3 0 0 0c-4,1 -7,4 -9,9l0 0c-1,2 -1,3 -3,4 -9,-7 -26,-20 -39,-22 -4,0 -6,-3 -9,-6l0 0 0 0 0 0c-3,-3 -8,-9 -17,-9l-5 1c-6,1 -9,3 -11,5 -1,0 -1,-1 -2,-1 -4,-2 -7,-4 -9,-5l-2 -1 -1 0 0 0 0 0 0 0 0 0 0 0 0 0 0 0c-1,-1 -5,-4 -9,-6 -4,-3 -9,-5 -13,-5l-1 0c-2,0 -11,1 -21,5 -10,3 -20,8 -24,18l0 0c-1,2 -1,5 -1,7 0,6 3,12 8,18l0 0c2,2 6,5 25,12l9 3 0 0c8,3 8,3 12,6l0 0 2 1c3,2 5,3 7,3l0 0c-2,2 -3,5 -3,10 0,2 -2,5 -4,9l0 0c-3,5 -7,11 -7,19 0,6 2,13 9,20 9,10 10,12 10,13l0 0 3 3c1,1 3,2 5,4l0 0c5,3 10,4 13,5l0 0 0 0c-2,4 -3,7 -3,10 -2,0 -4,-1 -6,-1 -4,0 -9,1 -14,1 -6,1 -12,1 -19,1 -4,0 -7,2 -9,3l0 0 0 0 -2 1 -2 -1c-14,-8 -27,-16 -36,-16l0 0 -3 0 0 0 0 0 -2 -1 0 0 -6 -3 0 0c-5,-2 -10,-6 -15,-9l-2 -1c-9,-6 -16,-11 -22,-11l0 0 -1 0c-1,-1 -3,-3 -7,-6 -5,-3 -6,-5 -8,-8l0 0 0 0c-2,-3 -5,-7 -13,-7 -5,0 -18,2 -30,6 -12,4 -24,11 -26,22l0 0c0,3 -2,5 -3,8l0 0 0 0c-1,2 -3,5 -3,8l0 3c1,4 4,6 8,8l0 0 4 2 1 0 0 0c5,3 8,4 14,4 2,0 5,0 8,-1l0 0 2 0c3,0 5,-1 7,-1l4 1c1,1 2,3 4,6l0 0c5,9 6,13 7,17l0 0 1 4 0 0c2,6 5,10 7,11l0 0 1 1 0 0 1 1 3 1 1 0 2 -1 0 0 0 0 0 0c3,-1 8,-3 14,-10l0 0c2,-2 9,-5 21,-5 12,0 28,3 48,13 1,0 52,26 80,28 6,0 10,1 12,1 2,1 3,1 4,2l0 0 0 0 0 0 0 0c2,1 4,2 7,3l0 0c4,1 7,2 9,2l0 0 2 0 0 1c1,5 3,8 4,11l0 0 0 0 0 0c0,1 0,2 1,2 -1,0 -2,0 -3,0 -2,0 -4,2 -5,4l-1 3c0,4 3,8 7,12 13,14 16,22 16,22 1,2 3,6 9,8l4 1c2,0 4,-1 7,-2l0 0c5,-3 11,-8 18,-16l1 0 0 0 1 -1 0 0 1 -2 0 -1 0 -1 0 0c0,-1 -1,-5 -1,-7 2,-1 3,-1 6,-1l3 0c3,1 5,1 7,1 7,0 11,-2 12,-4l0 0 0 0 0 0 0 0 1 -1 0 0 0 0 0 0 0 0c1,-1 4,-8 4,-15l0 -4 1 1c5,4 11,5 15,5l3 0 1 0 0 0 0 0 2 0 1 0 2 -2 0 -1 0 0 0 -2 1 -2 1 -1 0 0 0 0c1,0 5,1 11,6l0 0c11,9 13,13 13,14l0 0c1,2 3,4 5,5 2,1 5,1 8,1 10,0 14,-6 17,-9l0 0c2,-3 3,-4 6,-5l1 0 2 -1c20,-7 38,-10 54,-10 23,0 43,7 60,20 1,1 2,2 3,2 -1,2 -2,5 -2,9 0,3 1,7 3,11l0 0c1,2 1,3 2,4l0 0c0,3 2,5 4,7 2,2 5,3 8,4 4,2 5,3 6,4l0 0c2,2 5,3 8,3 2,0 5,-1 8,-2 12,-4 25,-14 25,-28l0 -1c0,-1 0,-2 0,-3 6,-1 9,-2 12,-4 3,-2 5,-5 6,-9l0 0 0 -3c0,-7 -5,-19 -9,-27l0 0z"/>
  <polygon class="fil1" points="3248,2433 3240,2428 3240,2428 3231,2423 3231,2423 3230,2422 3229,2421 3227,2421 3226,2422 3225,2423 3225,2423 3213,2429 3213,2429 3211,2430 3210,2431 3209,2434 3209,2435 3209,2435 3210,2437 3211,2445 3211,2445 3211,2446 3211,2446 3213,2448 3213,2448 3214,2449 3222,2456 3223,2456 3223,2456 3224,2457 3224,2457 3225,2457 3225,2457 3235,2459 3237,2459 3238,2459 3240,2458 3241,2457 3242,2456 3242,2456 3245,2451 3245,2451 3247,2449 3247,2448 3247,2445 3246,2444 3244,2442 3242,2440 3251,2440 3253,2438 3252,2435 "/>
  <path class="fil1" d="M3453 2678l0 0 1 1 0 0 7 9 2 3 3 1 1 0c1,0 2,1 3,1 2,0 5,0 8,-2 7,-4 10,-6 10,-6l1 -1 1 0 1 -2 0 -15 0 0 -2 -14 0 0 0 -1 -3 -2 -1 0 -2 0 -2 0 -2 0 -1 1 0 0 -1 0 0 0c0,0 -1,0 -2,1l-4 1 -1 0c-2,0 -4,1 -6,2 -2,1 -4,3 -6,7l0 0c-2,5 -3,11 -3,12l0 0 0 1 0 0 0 1 0 2 0 0z"/>
  <path class="fil1" d="M3550 2987l6 -6 2 -1 1 -1 0 -4 -1 -1 -1 -2 -5 -7 0 0 -1 -1 0 0 0 0 -1 -1 0 0 -1 0c-1,0 -5,-1 -9,-1 -2,0 -5,0 -7,1 -2,1 -4,3 -5,6l0 0 -2 4 -1 1 0 0 0 0 0 0c-5,2 -10,7 -10,14l0 4c1,6 3,10 3,11l0 0 0 1 0 0 0 0 0 0 0 0 1 1 0 1 2 2 1 0 1 0 3 1 1 0c0,2 0,5 1,7 1,3 4,5 8,7l4 1c7,0 13,-5 14,-5l0 0 1 -1 0 0 1 0 1 -2 0 -10 -1 -2 0 0 -1 -1c-1,-1 -4,-6 -4,-10 0,-3 0,-4 0,-6l0 -1z"/>
  <path class="fil1" d="M3499 2644l1 1 7 7 1 1 0 0 5 2c2,0 4,0 6,-1l2 0 0 0 2 3 1 2 0 0 1 1 3 1 1 0 2 -1 5 -2 1 0 0 0 1 -1 0 0 0 0 0 0 5 -5 1 -1 0 0 0 0 1 -2 0 -8 -1 -2 -1 0 -1 -1 0 0 -7 -7 0 0 0 0 0 0 -1 -1 0 0 0 0 -5 -2 -6 -3 -1 -1 0 0 -1 0 -2 0 0 0 -1 0 -12 3 -1 0 -1 0 -2 1 0 1 0 0 -1 1 0 0 -3 9 0 2 0 1 1 3 1 1z"/>
  <path class="fil1" d="M3506 3022l-2 1c-5,2 -11,6 -14,8l-1 1 0 0 0 0 0 0 0 0 0 0 0 0 0 0 0 0 0 0 0 0c-4,4 -7,8 -8,12l0 0 -1 6c0,7 3,14 3,14l0 0c1,3 3,5 6,7l5 1 4 -1 0 0c4,-1 6,-3 8,-5l0 0 3 -3c0,0 0,0 0,0 4,-4 6,-8 6,-10l3 -4 0 0 0 -1 0 0 0 0 0 -1 0 -8c0,-4 -1,-7 -2,-10l-2 -3 -1 -1 -1 -2 -1 -1 -4 -1 -1 1z"/>
  <path class="fil1" d="M3536 2801l-2 -1 -16 0 -2 2 0 1 0 0 -1 2 -5 14 0 0 0 0 0 0 0 1 0 15 1 2 1 0 1 1c0,0 1,1 2,3 1,2 1,4 1,6l0 3 0 5 1 2 2 1 2 0 3 -1 8 -2 0 0 1 0 1 -1 0 0 6 -3 2 -1 1 0 1 -3 0 -1 0 0 0 -2 0 0 -2 -9 5 -1 1 0 1 0 2 -1 0 -1 0 0 0 -1 4 -7 0 0 0 0 0 0 0 -1 0 -7 0 -1 0 0 0 0 0 0c-2,-3 -6,-7 -13,-7l-3 0 -3 -3 -1 -1 0 0 0 0z"/>
  <path class="fil2" d="M2406 4069c-899,0 -1630,-731 -1630,-1631 0,-899 731,-1630 1630,-1630 899,0 1630,731 1630,1630 0,899 -731,1631 -1630,1631zm0 -4074l-7 0c-1323,2 -2400,1079 -2400,2403 0,1325 1078,2403 2403,2403 1325,0 2403,-1078 2403,-2403 0,-1324 -1076,-2401 -2400,-2403z"/>
  <path class="fil0" d="M562 1785l-123 -108 164 3 -41 105zm131 116l-75 -66 60 -154 101 1 33 -85 -446 3 -32 82 327 301 32 -83z"/>
  <path class="fil0" d="M658 3675l-36 -55c-19,-28 -29,-46 -32,-52 -5,-13 -7,-24 -4,-35 3,-11 11,-20 22,-28 10,-7 21,-10 31,-10 10,0 19,4 27,10 8,7 23,26 45,60l34 52 -88 57zm289 -188l-145 94 -9 -14c-10,-16 -17,-29 -19,-38 -2,-9 -2,-19 1,-31 3,-11 12,-35 27,-70l43 -100 -54 -84 -40 87c-16,34 -26,60 -30,77 -4,17 -6,36 -5,57 -24,-28 -50,-44 -77,-48 -27,-4 -53,2 -80,19 -20,13 -35,30 -45,51 -9,21 -12,41 -7,62 5,21 19,50 43,87l96 148 347 -226 -46 -70z"/>
  <path class="fil0" d="M3152 587c20,-43 45,-71 74,-83 29,-12 59,-11 91,4 31,15 51,37 60,67 9,30 3,66 -17,109 -20,44 -46,71 -75,84 -30,13 -60,12 -90,-3 -30,-14 -50,-37 -59,-68 -9,-31 -4,-68 16,-110zm13 243c55,26 107,30 156,11 49,-19 88,-58 116,-119 29,-61 35,-117 18,-166 -17,-50 -53,-88 -108,-114 -31,-14 -60,-22 -88,-23 -21,-1 -42,3 -64,11 -22,8 -42,20 -59,35 -24,21 -44,50 -62,88 -28,60 -34,114 -17,164 17,50 53,87 109,114z"/>
  <polygon class="fil0" points="754,3140 376,3310 411,3387 788,3216 "/>
  <path class="fil0" d="M3659 717l32 25c24,19 39,32 46,39 9,10 14,22 15,35 1,13 -3,26 -12,38 -8,10 -17,16 -27,20 -11,3 -22,3 -33,0 -11,-3 -30,-15 -56,-35l-36 -28 72 -93zm-211 271l96 -123 43 33c30,23 54,39 72,49 14,6 29,10 46,11 17,1 35,-3 53,-11 18,-8 35,-22 50,-42 20,-26 31,-52 31,-78 0,-26 -7,-49 -22,-69 -10,-13 -35,-35 -75,-66l-106 -82 -254 327 66 51z"/>
  <path class="fil0" d="M526 3050l-18 -65c-10,-37 -15,-61 -14,-73 1,-12 5,-22 11,-30 7,-8 16,-14 28,-17 14,-4 27,-4 37,2 11,5 18,14 24,25 4,7 10,26 18,55l21 75 -107 30zm-159 44l-13 -46c-10,-38 -16,-61 -18,-69 -2,-14 0,-25 6,-34 6,-9 15,-15 27,-19 13,-4 24,-3 34,3 10,6 18,15 23,29 3,8 9,27 18,58l15 53 -92 26zm318 -147c-15,-51 -25,-83 -30,-96 -8,-21 -20,-37 -34,-49 -14,-12 -31,-19 -51,-23 -20,-4 -38,-3 -57,2 -23,6 -41,18 -55,36 -13,18 -20,40 -21,66 -13,-15 -28,-25 -47,-31 -18,-6 -37,-6 -56,-1 -17,5 -32,13 -43,25 -12,12 -20,25 -25,40 -5,15 -7,30 -5,46 2,16 7,40 16,72l44 159 399 -110 -38 -136z"/>
  <polygon class="fil0" points="663,1992 594,1981 557,2210 446,2192 479,1986 410,1975 377,2180 286,2166 322,1945 253,1934 204,2237 613,2303 "/>
  <polygon class="fil0" points="2629,590 2397,582 2401,469 2609,476 2611,406 2403,400 2406,308 2630,315 2632,245 2325,235 2312,649 2627,659 "/>
  <polygon class="fil0" points="2979,667 2776,620 2853,288 2772,269 2679,670 2963,735 "/>
  <polygon class="fil0" points="2143,671 2219,238 2132,253 2083,572 1928,288 1839,303 2055,686 "/>
  <polygon class="fil0" points="1901,717 1876,652 1660,737 1619,632 1812,556 1787,491 1594,567 1560,482 1768,400 1742,335 1457,447 1608,832 "/>
  <polygon class="fil0" points="871,1514 647,1363 964,1376 1011,1306 668,1074 624,1139 853,1294 529,1279 484,1347 827,1579 "/>
  <path class="fil0" d="M1184 691c28,-19 48,-30 59,-35 15,-6 29,-8 43,-5 14,2 28,9 42,20 14,11 30,30 48,57 18,27 30,49 35,68 6,18 7,34 4,45 -3,12 -9,23 -19,33 -7,8 -20,18 -40,31l-52 35 -152 -228 31 -21zm221 266c26,-17 45,-33 57,-48 16,-20 26,-40 31,-60 6,-26 4,-55 -4,-86 -7,-25 -19,-52 -38,-80 -22,-32 -43,-57 -66,-74 -22,-17 -46,-28 -70,-34 -25,-6 -49,-5 -73,3 -18,6 -41,18 -70,37l-127 85 230 345 131 -87z"/>
  <path class="fil0" d="M440 2624l-3 -67c-2,-38 -1,-63 2,-74 3,-12 9,-21 18,-27 8,-7 19,-10 31,-11 15,-1 26,3 36,10 9,7 15,17 18,29 2,8 4,27 5,57l4 77 -111 5zm-165 8l-2 -48c-2,-39 -3,-63 -2,-71 1,-14 5,-25 13,-32 8,-7 18,-11 31,-12 13,-1 24,3 33,11 9,8 14,19 16,33 1,8 3,28 4,61l3 55 -96 5zm342 -74c-3,-53 -5,-87 -8,-101 -4,-22 -11,-40 -23,-55 -11,-15 -26,-26 -44,-34 -18,-8 -37,-11 -56,-10 -24,1 -44,9 -61,24 -17,14 -29,34 -35,60 -9,-17 -22,-31 -39,-41 -17,-10 -35,-14 -54,-13 -18,1 -34,6 -48,15 -14,9 -25,20 -33,33 -8,13 -13,28 -15,44 -2,16 -2,41 0,73l8 165 414 -20 -7 -141z"/>
  <path class="fil0" d="M4192 3555l-160 -33 60 -96 101 129zm-208 -267l62 79 -88 140 -99 -19 -48 77 439 79 47 -75 -265 -356 -47 75z"/>
  <polygon class="fil0" points="3717,1222 3970,1017 3769,1285 3819,1348 4124,1207 3871,1412 3920,1472 4241,1212 4162,1114 3896,1234 4068,998 3990,901 3668,1161 "/>
  <polygon class="fil0" points="4085,1809 4147,1778 4046,1570 4148,1521 4238,1708 4301,1677 4210,1490 4293,1450 4391,1651 4453,1621 4319,1345 3947,1526 "/>
  <polygon class="fil0" points="3439,3904 3507,4009 3487,4104 3286,4002 3195,4061 3471,4184 3427,4405 3522,4344 3564,4097 3664,4252 3734,4207 3509,3858 "/>
  <polygon class="fil0" points="3738,3637 3931,3826 3621,3755 3562,3815 3857,4106 3911,4051 3715,3857 4030,3930 4088,3872 3793,3581 "/>
  <polygon class="fil0" points="4121,1932 4383,1868 4160,2094 4180,2176 4582,2078 4564,2002 4295,2068 4524,1838 4505,1759 4103,1857 "/>
  <polygon class="fil0" points="4600,2200 4530,2202 4534,2325 4190,2337 4193,2421 4537,2409 4541,2531 4611,2529 "/>
  <path class="fil0" d="M4185 2981l105 37 -22 64c-13,36 -23,59 -30,68 -8,10 -16,16 -27,18 -10,3 -21,2 -33,-2 -14,-5 -24,-13 -29,-23 -6,-10 -8,-22 -6,-34 1,-8 7,-27 17,-55l26 -73zm132 169c2,-8 8,-27 19,-58l18 -52 90 32 -16 45c-13,37 -21,59 -25,67 -6,13 -14,21 -24,25 -10,4 -21,4 -33,0 -13,-4 -21,-12 -26,-22 -5,-11 -6,-23 -3,-37zm-217 -138c-17,50 -28,83 -31,96 -5,22 -5,42 0,59 5,18 14,34 28,48 14,14 30,24 48,31 23,8 45,8 66,2 21,-7 39,-21 55,-43 2,20 9,37 20,52 12,15 27,26 45,32 17,6 33,7 50,4 16,-3 31,-9 43,-19 12,-9 23,-21 31,-35 8,-14 17,-37 28,-68l55 -156 -391 -138 -47 133z"/>
  <path class="fil0" d="M2415 4332c-47,0 -84,38 -84,84 0,46 38,84 84,84 47,0 84,-38 84,-84 0,-47 -38,-84 -84,-84z"/>
  <path class="fil0" d="M1460 3955c-38,-23 -75,-33 -111,-30 -36,3 -71,21 -106,53l55 65c22,-22 43,-35 64,-38 21,-4 41,0 60,12 26,16 41,38 45,67 4,29 -7,66 -35,110 -26,42 -53,67 -81,76 -28,9 -55,5 -81,-11 -19,-12 -32,-27 -38,-46 -7,-19 -7,-39 1,-59l-81 -27c-9,33 -11,62 -4,87 11,42 38,76 81,103 49,31 99,39 149,25 51,-14 94,-50 130,-109 34,-55 46,-108 36,-159 -10,-51 -39,-90 -86,-119z"/>
  <path class="fil0" d="M933 3952l67 -150 81 79 -147 71zm305 -146l-90 43 -118 -116 40 -93 -65 -64 -171 412 63 62 405 -183 -63 -62z"/>
  <path class="fil3" d="M4762 2402c0,1300 -1057,2357 -2357,2357 -1300,0 -2357,-1057 -2357,-2357 0,-1300 1057,-2357 2357,-2357 1300,0 2357,1057 2357,2357zm46 3l0 -7c-2,-1324 -1079,-2400 -2403,-2400 -1325,0 -2403,1078 -2403,2403 0,1325 1078,2403 2403,2403 1324,0 2402,-1076 2403,-2400z"/>
  <path class="fil4" d="M2403 4062c-898,0 -1629,-731 -1629,-1629 0,-898 731,-1629 1629,-1629 898,0 1629,731 1629,1629 0,898 -731,1629 -1629,1629zm0 -3308c-926,0 -1680,753 -1680,1680 0,926 753,1679 1680,1679 926,0 1679,-753 1679,-1679 0,-926 -753,-1680 -1679,-1680z"/>
  <path class="fil1" d="M1582 2037c-13,0 -23,10 -23,23 0,13 10,23 23,23 13,0 23,-10 23,-23 0,-13 -10,-23 -23,-23zm-48 20l-6 -2 -1 0 -1 0 -1 -3 0 -1 0 0 0 -1c0,-4 -1,-8 -3,-11 -2,-3 -5,-6 -10,-7l-1 0 -7 3c-5,6 -5,13 -5,21l1 10 0 0c0,5 4,10 7,12 4,2 8,3 12,3 5,0 10,-1 13,-2l2 0 1 -1 5 -5 2 -2 0 -2c-1,-6 -5,-9 -8,-11zm-97 50c-8,-2 -18,-3 -30,-3 -12,0 -23,3 -31,8 -8,5 -14,13 -14,23l0 3 0 0c1,6 4,11 9,14 4,3 10,4 15,4 7,0 15,-2 21,-4l7 -1c6,0 13,1 18,2 6,1 9,2 9,2l1 0 1 0c0,0 4,0 8,-2 4,-2 9,-8 9,-15 0,-4 -1,-9 -3,-14 -4,-9 -11,-15 -19,-17z"/>
  <polyline class="fil5 str0" points="1027,2451 976,2451 956,2474 921,2675 967,2688 "/>
 </g>
</svg>
