<svg xmlns="http://www.w3.org/2000/svg" fill="none" viewBox="0 0 1166 1145">
  <g clip-path="url(#a)">
    <path fill="#231F20" d="M363 1051.48c199.541 0 361.3-15.47 361.3-34.56 0-19.087-161.759-34.56-361.3-34.56-199.54 0-361.3 15.473-361.3 34.56 0 19.09 161.76 34.56 361.3 34.56Zm681.6 93.02c66.83 0 121-10.11 121-22.58 0-12.47-54.17-22.58-121-22.58-66.826 0-121 10.11-121 22.58 0 12.47 54.174 22.58 121 22.58Z" opacity=".2"/>
    <path fill="#1B7661" fill-opacity=".62" d="M714 145v794.74a70.794 70.794 0 0 1-20.737 50.05 70.806 70.806 0 0 1-50.053 20.73H70.79c-9.296 0-18.5-1.83-27.09-5.38a70.86 70.86 0 0 1-22.966-15.347A70.785 70.785 0 0 1 0 939.74V70.79A70.78 70.78 0 0 1 70.79 0h493.05a20.55 20.55 0 0 1 14.3 5.78L708.45 132a18.085 18.085 0 0 1 4.07 5.93A18.347 18.347 0 0 1 714 145Z"/>
    <path fill="#1B7661" fill-opacity=".58" d="M714 144.65h-69.93a76.888 76.888 0 0 1-76.88-74.16L564.72 0a18.5 18.5 0 0 1 12.87 5.21l131.09 126.93a17.219 17.219 0 0 1 3.91 5.71 17.435 17.435 0 0 1 1.41 6.8Z"/>
    <path fill="#1B7661" d="M601.07 249.82H72a13.23 13.23 0 0 0 0 26.46h529.07a13.23 13.23 0 0 0 0-26.46Zm-85.43 79.36H73.19a14.426 14.426 0 0 0-10.441 4.085 14.427 14.427 0 0 0-4.359 10.33 14.419 14.419 0 0 0 14.8 14.415h442.45a14.429 14.429 0 0 0 10.441-4.085 14.422 14.422 0 0 0-4.807-23.759 14.429 14.429 0 0 0-5.634-.986Zm0 81.74H73.19a14.426 14.426 0 0 0-10.441 4.085 14.427 14.427 0 0 0-4.359 10.33 14.419 14.419 0 0 0 14.8 14.415h442.45a14.429 14.429 0 0 0 10.441-4.085 14.422 14.422 0 0 0-4.807-23.759 14.429 14.429 0 0 0-5.634-.986ZM345.93 493.2H73.19a14.426 14.426 0 0 0-10.441 4.085 14.427 14.427 0 0 0-4.359 10.33 14.419 14.419 0 0 0 14.8 14.415h272.74a14.42 14.42 0 0 0 0-28.83Zm0 81.74H73.19a14.426 14.426 0 0 0-10.441 4.085 14.427 14.427 0 0 0-4.359 10.33 14.419 14.419 0 0 0 14.8 14.415h272.74a14.42 14.42 0 0 0 0-28.83Zm0 81.74H73.19a14.42 14.42 0 1 0 0 28.84h272.74c3.824 0 7.492-1.519 10.196-4.224a14.417 14.417 0 0 0 0-20.393 14.42 14.42 0 0 0-10.196-4.223Zm255.14 75.61H72a13.219 13.219 0 0 0-9.59 3.742A13.23 13.23 0 0 0 72 758.74h529.07a13.235 13.235 0 0 0 9.589-3.742 13.23 13.23 0 0 0-9.589-22.708Zm-85.43 79.36H73.19a14.426 14.426 0 0 0-10.441 4.085 14.427 14.427 0 0 0-4.359 10.33 14.419 14.419 0 0 0 14.8 14.415h442.45a14.429 14.429 0 0 0 10.441-4.085 14.422 14.422 0 0 0-4.807-23.759 14.429 14.429 0 0 0-5.634-.986Zm108.09 81.73H76.6c-9.84 0-17.83 6.46-17.83 14.42s8 14.41 17.83 14.41h547.13c9.84 0 17.82-6.45 17.82-14.41s-7.98-14.42-17.82-14.42Z"/>
    <path fill="#63B6A3" d="m811.05 820.67-30.47 30.46L852.43 923l30.46-30.47-71.84-71.86Z"/>
    <path fill="#1B7661" d="M593.48 927.15c169.68 0 307.23-137.55 307.23-307.23S763.16 312.69 593.48 312.69 286.25 450.24 286.25 619.92 423.8 927.15 593.48 927.15Z"/>
    <path fill="#63B6A3" d="M593.48 880.49C737.39 880.49 854 763.83 854 619.92S737.39 359.36 593.48 359.36c-143.91 0-260.56 116.64-260.56 260.56 0 143.92 116.65 260.57 260.56 260.57Z"/>
    <path fill="#1B7661" d="M853.83 891a41.592 41.592 0 0 0 0 58.8l161.41 161.41a41.6 41.6 0 0 0 58.8 0c3.86-3.86 6.93-8.44 9.02-13.49a41.541 41.541 0 0 0 3.16-15.91c0-5.46-1.07-10.87-3.16-15.91a41.557 41.557 0 0 0-9.02-13.49L912.63 891a41.566 41.566 0 0 0-45.312-9.015A41.566 41.566 0 0 0 853.83 891ZM496.44 556.14l30.53 30.53-20.35 20.36-30.53-30.53-30.53 30.53-20.36-20.36 30.53-30.53-30.53-30.53 20.36-20.35 30.53 30.53 30.53-30.53 20.35 20.35-30.53 30.53Zm234.78 0 30.53 30.53-20.35 20.36-30.53-30.53-30.53 30.53-20.35-20.36 30.53-30.53-30.53-30.53 20.35-20.35 30.53 30.53 30.53-30.53 20.35 20.35-30.53 30.53ZM651.05 717.9H535.91v28.78h115.14V717.9Z"/>
  </g>
  <defs>
    <clipPath id="a">
      <path fill="#fff" d="M0 0h1165.6v1144.5H0z"/>
    </clipPath>
  </defs>
</svg>
